<svg width="350" height="480" xmlns="http://www.w3.org/2000/svg" xmlns:svg="http://www.w3.org/2000/svg" xmlns:xlink="http://www.w3.org/1999/xlink" style="vector-effect: non-scaling-stroke;">
  <defs style="vector-effect: non-scaling-stroke;">
  <symbol height="2304" id="svg_1780" style="vector-effect: non-scaling-stroke;" viewBox="0 0 1728 2304" width="1728" xmlns="http://www.w3.org/2000/svg" xmlns:svg="http://www.w3.org/2000/svg" xmlns:xlink="http://www.w3.org/1999/xlink">
  <metadata id="svg_1779" style="vector-effect: non-scaling-stroke;">image/svg+xml</metadata>

  <!-- Hair Wrapper -->
  <path class="hair-wrapper"  d="m1049.0095,185.99961c0,-0.0879 0,-0.1756 0.017,-0.26312c0,0 0,0 0,0c0.02,-0.0857 0.052,-0.17105 0.096,-0.25634l0,0l0,0l0,0c0.086,-0.17001 0.2175,-0.3384 0.3915,-0.50539l0,0l0,0c0.3453,-0.33121 0.8582,-0.65334 1.5235,-0.96102l0,0c1.3033,-0.6027 3.1862,-1.14391 5.5291,-1.56309l0,0c4.3602,-0.78215 10.4065,-1.15825 17.1328,-0.51799c0.8981,0.0793 1.817,0.17726 2.7512,0.29865c5.7303,0.74458 10.7972,2.22206 15.0834,4.53367c0,0 0,0.00001 0,0.00001c2.6464,1.38138 4.7761,3.19308 6.2065,5.19887c3.1769,4.35137 0.8761,6.99508 0.2601,7.03615c-1.1422,0.0761 -2.334,-1.62496 -4.5221,-2.69147c-1.4286,-0.74477 -2.7912,-1.10672 -5.1579,-1.78827c0,0 0,0 0,0c-3.9822,-1.08011 -7.6756,-1.60872 -13.1837,-2.35028c-0.8622,-0.11608 -1.7072,-0.2302 -2.5598,-0.34979c-6.275,-0.83694 -11.7827,-1.53553 -16.0831,-2.42681l0,0c-2.2494,-0.4659 -4.0916,-0.97012 -5.3822,-1.52078l0,0c-0.6596,-0.28139 -1.1777,-0.577 -1.535,-0.88531l0,0l0,0c-0.1803,-0.15555 -0.32,-0.31534 -0.4167,-0.47823l0,0l0,0l0,0c-0.049,-0.0818 -0.086,-0.16474 -0.1131,-0.24847c0,0 0,0 0,0c-0.021,-0.0861 -0.033,-0.17312 -0.037,-0.26099l-0.0005,0z"  id="svg_1764" stroke-width="1px" style="vector-effect: non-scaling-stroke;"/>
  <path class="hair-wrapper"  d="m1134,208c0.3765,-1.32443 4.2533,-1.51804 10.249,-0.75387c0,0 0,0 0,0c5.4665,0.8214 12.8488,2.67738 20.6168,5.93209c0,0 0,0 0,0c0.7707,0.32277 1.5474,0.66096 2.3276,1.01563c2.8477,1.29449 5.5257,2.71044 8.0274,4.26874c3.2382,2.00054 6.0526,4.2055 8.3901,6.71465c2.4112,2.47524 4.0045,5.35248 4.6375,8.19591c0.3516,1.66762 0.2348,3.19485 -0.1026,4.40286c-0.8554,2.93127 -2.5983,3.49775 -3.1458,3.22399c-0.7195,-0.35977 -0.7107,-1.86677 -1.3251,-3.44806c-0.2478,-0.67619 -0.6106,-1.36744 -1.1369,-2.09351c-0.9558,-1.43625 -2.2949,-2.45591 -4.4856,-4.1293c-2.1828,-1.56636 -4.5675,-2.89272 -7.6216,-4.48632c-2.3251,-1.19955 -4.7336,-2.34215 -7.3765,-3.54363c-0.718,-0.32638 -1.4358,-0.64925 -2.1477,-0.96769c0,-0.00001 0,-0.00001 0,-0.00001c-7.1654,-3.20478 -13.7823,-5.9514 -18.6602,-8.31942c0,0 0,0 0,0c-5.4325,-2.48404 -8.6227,-4.68835 -8.2464,-6.01206z"  id="svg_1763" stroke-width="1px" style="vector-effect: non-scaling-stroke;"/>
  <path class="hair-wrapper"  d="m1012,185.99999c-0.4152,1.01478 -2.5298,1.2489 -5.6906,0.84331c0,0 0,0 0,0c-2.8337,-0.13842 -6.62068,-0.44826 -10.69809,-0.18153c-2.55948,0.15531 -5.28927,0.53253 -8.02356,1.25987c-1.65501,0.44025 -3.20967,0.98171 -4.66544,1.6133c0,0 0,0 0,0c-4.44137,1.83598 -8.28375,4.76533 -11.04417,6.76301c-2.84371,2.05795 -4.8522,3.36158 -5.87814,2.70205c-0.94971,-0.61053 -0.82942,-3.15626 1.05492,-6.74564c1.84955,-3.5231 5.54774,-8.15618 11.56903,-11.46882c0,0 0,0 0,0c1.96395,-1.04847 4.10237,-1.90348 6.37943,-2.51605c3.77776,-1.01629 7.48689,-1.24604 10.85617,-0.93204c5.43735,0.52423 9.74875,2.2742 12.49105,3.99759c0,0 0,0 0,0c2.7118,1.99989 4.0655,3.64795 3.6494,4.66495z"  id="svg_1762" stroke-width="1px" style="vector-effect: non-scaling-stroke;"/>
  <path class="hair-wrapper"  d="m953.54732,214.78302c-0.0198,0.078 -0.0471,0.1536 -0.0815,0.22685c0,0 0,0 0,0c-0.0387,0.0698 -0.0868,0.13683 -0.14367,0.20115c0,0 0,0 0,0c-0.11303,0.12774 -0.26201,0.24569 -0.44429,0.35342l0,0c-0.35774,0.21288 -0.8483,0.39197 -1.45322,0.54026l0,0c-1.17437,0.28799 -2.80728,0.47452 -4.76787,0.62226l0,0c-3.43314,0.26258 -8.72731,0.43054 -13.7289,1.12021c-1.98334,0.29714 -4.06295,0.66166 -6.06181,1.15273c-2.88456,0.70867 -5.34169,1.61598 -7.47751,2.84193c-2.21884,1.22131 -4.04646,2.6921 -5.51782,4.18873c-3.5786,3.57689 -5.37881,7.27811 -6.87069,6.96944c-1.12154,-0.23204 -2.74347,-4.6077 0.57147,-11.24233c1.36562,-2.68567 3.54138,-5.46179 6.64003,-7.75307c2.95508,-2.1365 6.4032,-3.73899 10.19474,-4.72048c2.65413,-0.68705 5.25859,-1.01379 7.69544,-1.0939c6.3349,-0.26824 11.76803,0.85971 15.46357,2.18505l0,0c2.01433,0.71904 3.56917,1.51341 4.59369,2.27282l0,0c0.52668,0.39041 0.91277,0.76898 1.14963,1.12715l0,0c0.11876,0.18071 0.19963,0.35491 0.2415,0.52252c0,0 0,0 0,0c0.021,0.0841 0.0321,0.16632 0.0333,0.24653c0,0 0,0 0,0c-0.004,0.0811 -0.0163,0.1607 -0.036,0.23873l-0.00009,0z"  id="svg_1761" stroke-width="1px" style="vector-effect: non-scaling-stroke;"/>
  <path class="hair-wrapper"  d="m880.99999,233c0.38693,1.24623 -4.70315,4.07187 -13.31581,7.67803c0,0 0,0 0,0c-7.56725,3.38527 -18.96225,8.18303 -30.35127,13.68731c-2.3281,1.13229 -4.72066,2.30968 -7.09997,3.52086c-9.32604,4.74737 -16.66652,9.13145 -23.17282,14.24446c0,0 -0.00001,0 -0.00001,0c-4.47721,3.54058 -7.57637,6.55434 -9.99142,9.84448c-4.35594,5.94369 -4.8515,10.95531 -6.06869,11.02487c-0.73616,0.0421 -3.67709,-5.20869 0.51481,-14.22482c2.03589,-4.41681 5.27358,-8.83611 9.85382,-13.17947c0,0 0,0 0,-0.00001c6.55899,-6.2581 14.61124,-11.70588 24.31841,-16.64337c2.51171,-1.27756 5.0113,-2.45947 7.45618,-3.55654c12.34734,-5.57831 23.94716,-9.16515 32.45805,-11.15848c0,0 0,0 0,0c9.21234,-1.9277 15.01165,-2.48399 15.39872,-1.23732z"  id="svg_1760" stroke-width="1px" style="vector-effect: non-scaling-stroke;"/>
  <path class="hair-wrapper"  d="m1346,815.99999c-0.6501,-0.86418 0.2171,-2.77391 2.1527,-5.2501c0,0 0,0 0,0c1.5318,-2.34101 3.6507,-5.39785 5.3861,-9.02899c1.1704,-2.40475 2.1928,-5.10269 2.8707,-8.02014c0.3572,-1.53741 0.5981,-3.04783 0.7329,-4.52146c0,0 0,0 0,0c0.5323,-4.96435 -0.2184,-9.97733 -0.6443,-13.49442c-0.4405,-3.6373 -0.598,-6.11721 0.5019,-6.68488c1.018,-0.52543 3.2159,0.92318 5.4627,4.4511c2.2049,3.46202 4.4917,9.13292 4.4583,16.19467c0,0 0,0 0,0c-0.034,2.06582 -0.2848,4.18393 -0.7756,6.30919c-0.9346,4.04668 -2.6196,7.61188 -4.6691,10.54903c-3.1424,4.45667 -6.8144,7.28423 -9.6697,8.75838c0,0 0,0 0,0c-3.0756,1.29063 -5.155,1.60378 -5.8066,0.73762z"  id="svg_1729" stroke-width="1px" style="vector-effect: non-scaling-stroke;"/>
  <path class="hair-wrapper"  d="m1369,767.99999c-0.037,-0.016 -0.071,-0.0376 -0.1026,-0.0647c-0.031,-0.0266 -0.06,-0.0584 -0.086,-0.0955c-0.052,-0.074 -0.095,-0.16892 -0.1288,-0.28417c0,0 0,0 0,0l0,0c-0.067,-0.22946 -0.098,-0.54036 -0.095,-0.92818l0,0c0.01,-0.76953 0.1484,-1.84968 0.4056,-3.2037l0,0c0.5042,-2.65409 1.4693,-6.44123 2.7214,-11.05035l0,0c2.3754,-8.74718 5.9729,-21.05978 9.3007,-34.74593c0.9952,-4.11144 1.9943,-8.40589 2.9153,-12.77073c2.1456,-10.16819 3.5264,-19.12275 4.2134,-27.75258c0,0 0,-0.00001 0,-0.00001c0.5757,-7.27591 0.5835,-13.09757 0.1202,-18.49243c-0.8882,-10.06448 -3.38,-15.94827 -2.2642,-16.61171c0.993,-0.59042 6.0643,4.24969 8.9059,15.4564c1.458,5.69303 2.2493,12.29587 2.2,20.01929c0,0 0,0.00001 0,0.00001c-0.053,9.15471 -1.1658,18.92021 -3.3804,29.44469c-0.9601,4.56262 -2.0653,8.97567 -3.2343,13.17453c-3.9164,14.12363 -8.6911,26.12379 -12.6962,34.53543l0,0c-2.0983,4.40794 -3.9908,7.83467 -5.5159,10.13492l0,0c-0.7723,1.16477 -1.4442,2.03121 -1.9978,2.58002l0,0c-0.2783,0.27579 -0.5253,0.47035 -0.7393,0.58083l0,0c0,0 0,0 0,0c-0.1073,0.0553 -0.206,0.0894 -0.296,0.10204c-0.045,0.006 -0.088,0.007 -0.1285,0.003c-0.042,-0.005 -0.081,-0.0149 -0.1175,-0.0309l0,-0.00027z"  id="svg_1728" stroke-width="1px" style="vector-effect: non-scaling-stroke;"/>
  <path class="hair-wrapper"  d="m1389,627c-1.256,-0.11066 -1.5253,-10.18857 -0.9552,-26.67835c0,0 0,0 0,0c0.086,-15.15781 0.1333,-36.5355 -1.8195,-59.84565c-0.5345,-6.38857 -1.2218,-12.97354 -2.1365,-19.64371c-0.6528,-4.76014 -1.3991,-9.40194 -2.2503,-13.94457c-2.1764,-11.58362 -4.8675,-21.88256 -8.3897,-31.38056c0,-0.00001 0,-0.00001 0,-0.00001c-3.9985,-10.73816 -8.4721,-19.09752 -13.586,-25.97752c0,0 0,0 0,0c-10.1014,-13.60218 -20.3888,-18.32483 -19.8628,-19.52963c0.2589,-0.59308 12.0383,0.76944 25.114,15.19635c0,0 0,0.00001 0,0.00001c6.2593,6.90674 11.9198,15.78776 16.6512,27.00333c0,0 0,0.00001 0,0.00001c4.2006,9.92207 7.4078,20.79721 9.8025,32.8026c0.9439,4.71984 1.7508,9.5414 2.4278,14.47041c0.9492,6.91169 1.5973,13.70389 2.0272,20.27419c1.5772,24.14022 0.3212,45.70907 -1.4095,61.05895c0,0 0,0 0,0c-2.3299,16.42421 -4.3569,26.30482 -5.6132,26.19415z"  id="svg_1727" stroke-width="1px" style="vector-effect: non-scaling-stroke;"/>
  <path class="hair-wrapper"  d="m749.74542,892.17118c-0.041,0.0191 -0.0842,0.0333 -0.12949,0.0426c-0.046,0.006 -0.0947,0.005 -0.14627,-0.002c0,0 0,0 0,0c-0.10289,-0.0136 -0.21666,-0.0523 -0.34103,-0.11542c0,0 0,0 0,0l0,0c-0.24799,-0.12591 -0.53754,-0.34895 -0.86596,-0.66486l0,0c-0.65207,-0.62723 -1.45423,-1.61809 -2.38362,-2.94146l0,0c-1.82423,-2.59757 -4.12476,-6.4561 -6.71109,-11.34l0,0c-4.82457,-9.10886 -10.73693,-21.92835 -16.00287,-36.52181c-0.32015,-0.88702 -0.63818,-1.7815 -0.95339,-2.68285c-2.1587,-6.17283 -3.98848,-12.10584 -5.48485,-17.87467c-1.79533,-6.90303 -2.9931,-13.08296 -3.56189,-18.97587c-0.62142,-5.97156 -0.45366,-10.79286 0.72255,-15.05815c0.5758,-2.16042 1.48933,-3.91282 2.57414,-5.20695c2.32617,-2.78934 4.39506,-2.14853 4.53836,-1.83009c0.2631,0.58468 -0.84038,1.65699 -1.4071,3.67717c-0.34352,1.1573 -0.45082,2.34579 -0.49377,4.17662c-0.0631,3.84809 0.58483,7.23794 1.84307,13.00277c1.25232,5.48498 2.82176,10.87544 4.93989,17.58484c1.75522,5.5447 3.6366,11.10204 5.76969,17.20356c0.30794,0.88083 0.61577,1.75776 0.92251,2.62912c5.06229,14.37719 9.86331,27.32727 13.13356,37.06592l0,0c1.73962,5.17999 3.05884,9.46011 3.78969,12.51693l0,0c0.37328,1.56127 0.59529,2.81219 0.64565,3.70952l0,0c0.0254,0.4526 0.007,0.81638 -0.0571,1.08585l0,0c0,0 0,0 0,0c-0.0322,0.13532 -0.0761,0.247 -0.1319,0.33431c0,0 0,0 0,0c-0.028,0.0437 -0.0589,0.0814 -0.0929,0.11284c-0.0362,0.0287 -0.0749,0.0526 -0.11587,0.0717l-0.00001,0.00038z"  id="svg_1717" stroke-width="1px" style="vector-effect: non-scaling-stroke;"/>
  <path class="hair-wrapper"  d="m711,779c-1.33599,0.21856 -4.66974,-12.5497 -9.00421,-33.4662c0,0 0,-0.00001 0,-0.00001c-3.88471,-19.57238 -8.41182,-46.60837 -11.94867,-76.73226c-0.38485,-3.27787 -0.75834,-6.59635 -1.11689,-9.94815c-1.21855,-11.39127 -2.17088,-22.29412 -2.85105,-32.81798c-0.94178,-14.55212 -1.31543,-27.37147 -1.05409,-39.38412c0.26942,-12.85718 1.15866,-22.51641 3.02669,-31.23272c0.97134,-4.5578 2.0994,-8.07157 3.46367,-11.01233c2.35123,-5.17651 5.03272,-6.8233 5.48455,-6.40623c0.46209,0.42655 -0.95583,2.71039 -2.11067,7.57482c-0.68033,2.99673 -1.1298,6.11518 -1.51865,10.64342c-0.74725,8.82475 -0.75254,17.38655 -0.27086,30.36957c0.45561,11.96361 1.30974,24.1415 2.58518,38.71711c0.91599,10.45616 1.97254,21.11607 3.18869,32.48478c0.35578,3.32586 0.71573,6.62402 1.07621,9.88266c2.59725,23.47871 6.32769,53.28688 8.92493,76.76559c0,0 0,0.00001 0.00001,0.00001c2.55259,21.18019 3.46108,34.34348 2.12516,34.56204z"  id="svg_1716" stroke-width="1px" style="vector-effect: non-scaling-stroke;"/>
  <path class="hair-wrapper"  d="m700.99951,520.9944c-0.0442,0.004 -0.0887,0.002 -0.13353,-0.005c-0.0443,-0.0104 -0.089,-0.0276 -0.1342,-0.0516c0,0 0,0 0,0c-0.0902,-0.048 -0.18212,-0.12311 -0.2756,-0.22471c0,0 0,0 0,0l0,0c-0.18641,-0.20269 -0.37868,-0.51049 -0.57578,-0.91859l0,0c-0.39153,-0.81069 -0.80013,-2.01385 -1.21554,-3.57317l0,0c-0.81658,-3.0652 -1.65326,-7.4821 -2.41753,-12.97106l0,0c-1.43491,-10.30122 -2.64552,-24.50574 -2.73461,-40.26369c-0.009,-1.49784 -0.007,-3.01164 0.007,-4.53869c0.0539,-6.12805 0.29258,-11.9826 0.73133,-17.60554c0.57629,-7.42318 1.45919,-13.9817 2.77831,-20.04105c1.35635,-6.34387 3.01033,-11.23168 5.30382,-15.31919c1.18677,-2.13646 2.48088,-3.76538 3.82438,-4.94939c2.6415,-2.38214 4.65731,-1.99693 4.84283,-1.53313c0.24155,0.60386 -0.86041,1.62926 -1.97268,3.84271c-0.64357,1.31168 -1.11322,2.66317 -1.70242,4.7495c-1.15768,4.15928 -1.69797,8.07565 -2.35223,14.47075c-0.58013,5.95719 -0.89003,11.93545 -1.12856,19.31012c-0.17598,5.52153 -0.27135,11.1054 -0.32474,17.16327c-0.0132,1.49468 -0.0235,2.98044 -0.0321,4.45088c-0.0919,15.82392 0.0155,29.18181 -0.23625,39.85873l0,0c-0.12916,5.48219 -0.34721,9.96269 -0.69857,13.085l0,0c-0.17922,1.59266 -0.39404,2.84105 -0.6486,3.6987l0,0c-0.12832,0.43235 -0.26714,0.76642 -0.41669,0.99643l0,0c0,0 0,0 0,0c-0.075,0.1155 -0.1529,0.20486 -0.23355,0.26735c0,0 0,0 0,0c-0.0404,0.0313 -0.0815,0.0559 -0.12335,0.0736c-0.043,0.0144 -0.0866,0.0235 -0.13076,0.0273l-0.00038,0.00047z"  id="svg_1715" stroke-width="1px" style="vector-effect: non-scaling-stroke;"/>
  
  <!-- Hair -->
  <path class="hair"  d="m1120.5424,459.32136c1.2736,-0.88435 -6.4485,-13.5048 -18.2217,-34.66903c-11.7474,-21.11791 -27.5348,-50.91494 -40.8973,-86.18258c0,0 0,-0.00001 0,-0.00001c-2.276,-6.0079 -4.4827,-12.16998 -6.5867,-18.47048c-8.6391,-25.8689 -14.0698,-49.64292 -17.1325,-71.74147l0,0c-3.4205,-24.7203 -3.4933,-43.34974 -2.743,-58.06842l0,0c0.3637,-7.14004 0.8028,-11.49803 1.1441,-15.53993l0,0c0.148,-1.75244 0.2495,-3.18668 0.2536,-4.10683l0,0c0,-0.47079 -0.021,-0.84312 -0.072,-1.0994l0,0c0,0 0,0 0,0c-0.086,-0.14957 -0.1299,-0.24448 -0.1671,-0.3233c0,0 0,0 0,0c0,0 0,0 0,0c-0.017,-0.0364 -0.057,-0.0771 -0.065,-0.0873c-0.01,-0.01 -0.012,-0.0174 -0.015,-0.025c0,-0.01 0,-0.0145 -0.01,-0.0193c0,-0.005 -0.01,-0.009 -0.011,-0.0116c-0.01,0.005 -0.017,0.007 -0.03,0.0127c-0.018,0.007 -0.074,0.0333 -0.1092,0.0427c0,0 0,0 0,0c0,0 0,0 0,0c-0.073,0.041 -0.176,0.10732 -0.3279,0.18904c0,0 0,0 0,0l0,0c-0.1911,0.19591 -0.4073,0.50294 -0.6501,0.92588l0,0c-0.4905,0.85517 -1.0576,2.1329 -1.6798,3.87212l0,0c-1.2735,3.5601 -2.6526,8.66836 -3.8485,15.53982l0,0c-2.5496,14.65384 -3.8631,34.52289 -1.3495,59.8455l0,0c2.2607,22.82033 7.4033,47.62823 16.2514,74.12103c2.16,6.46747 4.4538,12.77455 6.845,18.90471c0,0 0,0.00001 0,0.00001c14.0532,36.03411 31.3188,65.7149 44.8973,86.0694c13.6083,20.39924 23.4761,31.54795 24.5218,30.82182l0.0031,-0.00008z"  id="svg_1772" stroke-width="1px" style="vector-effect: non-scaling-stroke;"/>
  <path class="hair"  d="m948.48144,497.29192c-1.65839,0.14725 -3.22595,-8.01427 -9.9683,-19.27982c-3.29049,-5.51858 -7.36576,-10.95473 -13.14839,-17.59247c-5.33533,-6.10332 -10.6461,-11.50847 -17.51288,-18.54738c-6.25266,-6.40007 -13.53732,-13.87454 -20.40064,-21.54038c-7.1773,-8.00992 -14.32692,-16.79032 -21.08412,-26.31201c-7.88653,-11.11307 -14.57789,-22.30516 -20.10824,-33.52961c0,0 -0.00001,-0.00001 -0.00001,-0.00001c-12.5285,-25.54088 -18.53809,-49.69671 -21.19491,-66.66071c-2.68469,-17.14197 -2.14592,-27.45998 -0.45256,-27.72852c1.95336,-0.30978 4.82642,9.44425 10.05826,25.43271c5.15624,15.75739 12.93431,38.39552 25.53844,61.79169c0,0 0,0.00001 0,0.00001c5.54351,10.33472 12.0054,20.69386 19.49154,31.22515c6.402,9.00614 13.09256,17.49005 19.72389,25.39095c6.53891,7.78287 13.06322,15.12861 19.09755,22.16616c6.30777,7.34628 11.65962,13.85445 16.50575,20.76358c5.37628,7.63729 9.14627,14.61442 11.63387,21.28734c5.35682,14.39756 3.00532,23.02814 1.82075,23.13332z"  id="svg_1771" stroke-width="1px" style="vector-effect: non-scaling-stroke;"/>
  <path class="hair" d="m878.22662,524.91934c0.83279,-1.94728 -11.36216,-8.21113 -27.53092,-21.90228c-7.01404,-5.93292 -14.54393,-13.25369 -21.98034,-22.34758c0,0 0,0 0,0c-11.06181,-13.4778 -20.52173,-29.28271 -29.77273,-48.61111c-0.5946,-1.24233 -1.18113,-2.4839 -1.75984,-3.72332c-9.54999,-20.51955 -17.16765,-40.65049 -24.56946,-57.64694c-7.53749,-17.37294 -13.84101,-29.63303 -20.1556,-39.26389c-5.89478,-8.99059 -10.33728,-13.3362 -11.49813,-12.62473c-1.24399,0.76243 0.91345,6.45943 4.59211,16.15967c3.68634,9.72048 8.6933,23.63084 14.58919,40.59632c5.59993,16.1896 13.37261,39.00612 22.73282,59.39317c0.59501,1.30001 1.20258,2.60279 1.82316,3.90718c9.60788,20.19468 20.63051,37.15181 33.5114,51.01607c0,0 0,0.00001 0,0.00001c8.73676,9.3729 17.69957,16.56533 26.00805,21.93223c19.4114,12.52538 33.38746,14.57154 34.01029,13.1152z"  id="svg_1770" stroke-width="1px" style="vector-effect: non-scaling-stroke;"/>
  <path class="hair"  d="m848.52814,573.0026c-0.62244,0.8253 -8.58072,-3.61233 -20.98911,-12.71602c-12.16065,-8.92194 -29.48644,-23.04801 -46.51209,-41.43306c-0.00001,0 -0.00001,-0.00001 -0.00001,-0.00001c-8.45615,-9.12633 -16.97251,-19.49546 -24.69921,-31.0487c-5.02863,-7.51897 -9.43865,-15.11431 -13.2298,-22.78214c-8.93553,-18.09483 -13.70899,-35.56608 -15.74264,-50.94823c-3.8721,-29.46472 1.64684,-47.60897 2.37892,-47.54703c1.57554,0.13331 -0.10675,18.82051 5.33453,46.28368c2.86336,14.51302 8.01516,30.78521 16.76989,47.80862c3.71435,7.23196 7.97485,14.4268 12.79617,21.62552c7.39821,11.04627 15.49185,21.16591 23.45025,30.24431c0,0 0.00001,0.00001 0.00001,0.00001c15.90102,18.12807 32.37087,33.28914 43.21136,43.2155c11.22398,10.27751 17.94149,16.35648 17.23173,17.29755z"  id="svg_1769" stroke-width="1px" style="vector-effect: non-scaling-stroke;"/>
  <path class="hair"  d="m1219.0521,471.17922c-2.7444,-0.29274 0.097,-48.0479 6.3419,-106.59634c6.2452,-58.54845 13.5411,-105.82844 16.2855,-105.5357c2.7444,0.29274 -0.097,48.0479 -6.3419,106.59634c-6.2452,58.54845 -13.5411,105.82844 -16.2855,105.5357z"  id="svg_1768" stroke-width="1px" style="vector-effect: non-scaling-stroke;"/>
  <path class="hair"  d="m1327,418.99999c-0.038,-0.0135 -0.074,-0.0333 -0.1075,-0.0595c-0.033,-0.0256 -0.063,-0.0572 -0.092,-0.0948c-0.057,-0.075 -0.1046,-0.17368 -0.144,-0.2955c0,0 0,0 0,0l0,0c-0.079,-0.24247 -0.1238,-0.57742 -0.1376,-0.99963l0,0c-0.027,-0.83717 0.068,-2.0267 0.2679,-3.52551l0,0c0.3903,-2.9319 1.1933,-7.14826 2.2324,-12.27853l0,0c1.9615,-9.68936 4.945,-23.37972 7.4012,-38.49144c0.6868,-4.25843 1.3579,-8.69245 1.9388,-13.18629c1.4716,-11.38361 2.1206,-21.31187 1.9061,-30.79859c0,0 0,-0.00001 0,-0.00001c-0.1794,-7.71199 -0.8743,-13.82774 -2.108,-19.39331c-2.329,-10.39199 -6.134,-16.03973 -5.1573,-16.87688c0.8123,-0.69628 7.0783,3.37835 11.5517,14.90253c2.2728,5.81273 3.8696,12.67903 4.6195,20.84505c0,0 0,0 0,0c0.9276,10.02362 0.6353,20.81677 -0.8818,32.60214c-0.6042,4.69444 -1.3648,9.257 -2.2051,13.61751c-2.9949,15.64506 -7.1691,29.11021 -10.783,38.60192l0,0c-1.9033,5.00054 -3.6617,8.91461 -5.1057,11.57086l0,0c-0.7321,1.34673 -1.3773,2.35853 -1.9172,3.01325l0,0c-0.2714,0.32915 -0.5148,0.56667 -0.7284,0.70933l0,0c0,0 0,0 0,0c-0.107,0.0714 -0.2063,0.11892 -0.2977,0.14212c-0.046,0.0116 -0.09,0.0171 -0.1312,0.0165c-0.043,-0.00064 -0.083,-0.008 -0.1211,-0.0212l0,-0.00002z"  id="svg_1726" stroke-width="1px" style="vector-effect: non-scaling-stroke;"/>
  <path class="hair"  d="m1261,503c-1.1235,-0.57489 2.6173,-10.4177 9.6798,-26.15104c0,0 0,0 0,0c6.1992,-14.7502 14.9069,-35.4632 22.9371,-58.87215c2.1091,-6.16387 4.2191,-12.58224 6.1994,-19.12623c5.4534,-18.02005 9.0015,-33.9893 10.7675,-49.40154c0,-0.00001 0,-0.00001 0,-0.00001c1.3798,-12.10294 1.4383,-21.94072 0.357,-30.8804c-2.0494,-16.73113 -7.9778,-25.83042 -6.9408,-26.56864c0.7346,-0.52295 9.4015,6.9335 13.4801,25.43747c2.0836,9.37954 2.825,20.14145 1.9373,32.8193c0,0 0,0 0,0c-1.1185,16.11207 -4.4434,33.0625 -10.0149,51.49322c-2.0346,6.73076 -4.2465,13.25911 -6.5102,19.49716c-8.6514,23.90007 -18.5183,44.26751 -26.3095,58.53401c0,0 0,0 0,0.00001c-8.663,14.99804 -14.4591,23.79382 -15.5828,23.21884z"  id="svg_1725" stroke-width="1px" style="vector-effect: non-scaling-stroke;"/>
  <path class="hair"  d="m1188.9979,464.99048c-0.042,0.009 -0.087,0.009 -0.1328,0.00001c-0.047,-0.0154 -0.096,-0.0429 -0.1484,-0.0823l0,0l0,0l0,0c-0.1037,-0.0788 -0.217,-0.20522 -0.3395,-0.37828c0,0 0,0 0,0l0,0c-0.2444,-0.34505 -0.5246,-0.87427 -0.8376,-1.58063l0,0c-0.6221,-1.40383 -1.3672,-3.49213 -2.2094,-6.21658l0,0c-1.6548,-5.35292 -3.6564,-13.0618 -5.7625,-22.7243l0,0c-3.921,-17.98384 -8.3313,-43.12309 -10.6538,-71.13159c-0.3153,-3.79948 -0.5924,-7.66303 -0.8189,-11.57559c-0.5585,-9.6481 -0.7707,-18.93385 -0.6001,-27.95327c0.2449,-13.3004 1.2966,-25.1434 3.4659,-36.2302c0,0 0,-0.00001 0,-0.00001c1.0961,-5.6025 2.4489,-10.71804 4.1199,-15.46725c1.7279,-4.92493 3.7342,-9.1848 6.0429,-12.89467c2.5905,-4.1766 5.4271,-7.28858 8.2251,-9.53207c6.0967,-4.88111 10.5046,-4.62711 10.6513,-4.22373c0.2599,0.71467 -3.456,2.37769 -7.7219,7.30822c-2.0673,2.38143 -4.0374,5.3512 -5.927,9.323c-1.6764,3.53738 -3.0683,7.49044 -4.3072,12.17051c-1.1888,4.50916 -2.1058,9.32389 -2.8467,14.695c0,0 0,0.00001 0,0.00001c-1.4749,10.6903 -2.0148,21.9059 -1.9927,34.93361c0.02,8.79157 0.3256,17.81661 0.8747,27.29258c0.2223,3.83565 0.4778,7.63351 0.7549,11.37464c2.0256,27.33232 5.3243,52.83366 7.5621,70.74112l0,0c1.209,9.67074 2.1956,17.66424 2.7034,23.14417l0,0c0.2611,2.8171 0.4028,5.03398 0.3971,6.55516l0,0c0,0.76864 -0.043,1.36485 -0.1242,1.77766l0,0c0,0 0,0 0,0c-0.041,0.20731 -0.092,0.36879 -0.1532,0.48311l0,0l0,0.00001l0,0c-0.031,0.0573 -0.064,0.1028 -0.1007,0.13632c-0.038,0.0276 -0.078,0.0461 -0.1207,0.0554l0,-0.00006z"  id="svg_1723" stroke-width="1px" style="vector-effect: non-scaling-stroke;"/>
  <path class="hair"  d="m1144,449c-0.022,0.007 -0.045,0.009 -0.069,0.009c-0.024,-0.00093 -0.048,-0.006 -0.074,-0.0138c-0.051,-0.0165 -0.1071,-0.0475 -0.1671,-0.0929c0,0 0,0 0,0l0,0c-0.1196,-0.0907 -0.2559,-0.23867 -0.4084,-0.44268c0,0 0,0 0,0l0,0c-0.3039,-0.40671 -0.671,-1.03479 -1.0968,-1.87516l0,0c-0.8458,-1.66946 -1.9156,-4.16029 -3.1744,-7.40904l0,0c-2.4702,-6.37531 -5.6302,-15.56427 -9.1665,-27.04707l0,0c-6.5456,-21.25177 -14.5924,-50.87838 -20.8794,-83.70866c-0.3545,-1.85067 -0.7038,-3.71377 -1.0468,-5.58794c-2.5539,-13.95759 -4.5064,-27.18167 -5.8075,-40.00131c-1.537,-15.07107 -2.0701,-28.19948 -1.2935,-40.68624c0,0 0,-0.00001 0,-0.00001c0.3772,-6.08724 1.0739,-11.60204 2.1915,-16.77787c1.0985,-5.135 2.5726,-9.56239 4.544,-13.46097c2.0647,-4.13172 4.6208,-7.16428 7.3283,-9.21814c1.6768,-1.25991 3.3309,-2.04701 4.7518,-2.51251c3.4421,-1.12169 5.3197,-0.50125 5.3673,-0.17427c0.069,0.47136 -1.69,0.99911 -4.2011,2.66176c-1.0571,0.69705 -2.2293,1.62573 -3.3795,2.88008c-1.9134,2.06029 -3.4991,4.75822 -4.9199,8.54251c-1.3325,3.60456 -2.1994,7.58605 -2.8474,12.44332c-0.6403,4.88108 -0.914,10.03292 -0.9377,15.88164c0,0.00001 0,0.00001 0,0.00001c-0.047,12.08417 0.9891,24.48513 2.8567,39.34496c1.5871,12.57532 3.6539,25.44127 6.1845,39.27738c0.3386,1.85112 0.6806,3.69336 1.0249,5.52478c6.0396,32.11829 13.1267,62.49018 17.9617,83.7261l0,0c2.6392,11.59019 4.7923,21.16445 6.0972,27.78195l0,0c0.6701,3.39832 1.1296,6.07777 1.337,7.92397l0,0c0.1047,0.93285 0.1459,1.65849 0.1187,2.16356l0,0c0,0 0,0 0,0c-0.014,0.25365 -0.045,0.45212 -0.093,0.5938l0,0c0,0 0,0 0,0c-0.024,0.071 -0.053,0.12778 -0.087,0.17014c-0.017,0.0212 -0.035,0.0388 -0.054,0.0528c-0.019,0.0142 -0.04,0.0246 -0.062,0.0313l0.0014,-0.00049z"  id="svg_1722" stroke-width="1px" style="vector-effect: non-scaling-stroke;"/>
  <path class="hair"  d="m994.33095,462.65685c-0.016,0.0139 -0.0342,0.0253 -0.0546,0.0341c-0.02,0.009 -0.0421,0.0148 -0.0663,0.0186c-0.0484,0.007 -0.10508,0.005 -0.17005,-0.007c0,0 0,0 0,0l0,0c-0.1298,-0.0241 -0.2924,-0.0869 -0.48704,-0.18763c0,0 0,0 0,0l0,0c-0.38826,-0.20099 -0.90278,-0.55251 -1.5374,-1.04937l0,0c-1.26273,-0.98861 -2.98968,-2.54335 -5.13489,-4.62956l0,0c-4.23127,-4.1149 -10.0141,-10.22028 -16.96584,-18.0545l0,0c-13.14035,-14.80771 -30.5707,-35.8803 -48.41352,-60.59981c-3.1925,-4.42273 -6.40479,-8.97259 -9.60464,-13.63327c-5.28626,-7.69963 -10.23604,-15.26123 -14.86981,-22.73628c-7.96432,-12.84374 -14.55122,-24.69134 -20.02715,-36.25366c-5.99359,-12.62609 -9.81733,-23.10019 -12.04411,-32.97204c-1.24585,-5.51482 -1.77562,-10.1598 -1.80222,-14.20035c-0.0651,-7.89854 1.97967,-11.80663 2.604,-11.67042c0.72438,0.15805 0.29814,4.2478 1.53664,11.30532c0.6658,3.75502 1.69747,7.83048 3.42255,12.95888c3.12415,9.28137 7.34446,18.5845 13.84735,30.77018c5.91702,11.06106 12.62676,22.24314 20.72933,34.84224c4.69166,7.29286 9.61734,14.67836 14.84757,22.29582c3.16003,4.60236 6.31512,9.12033 9.43048,13.53064c17.27517,24.45486 33.95739,46.47444 45.60332,62.07811l0,0c6.1957,8.30094 11.24566,15.14022 14.56047,19.92025l0,0c1.69538,2.44478 2.96862,4.39489 3.75252,5.78081l0,0c0.39537,0.699 0.66849,1.25823 0.81173,1.66957l0,0c0,0 0,0 0,0c0.0719,0.20642 0.11114,0.37594 0.11693,0.50754l0,0c0,0 0,0 0,0c0.003,0.0659 -0.003,0.12238 -0.0166,0.16922c-0.007,0.0234 -0.0161,0.0445 -0.0274,0.0631c-0.0115,0.019 -0.0253,0.0355 -0.0413,0.0494l-0.00002,0.00011z"  id="svg_1721" stroke-width="1px" style="vector-effect: non-scaling-stroke;"/>
  <path class="hair"  d="m1051,452c-0.016,0.0161 -0.035,0.0292 -0.057,0.0392c-0.022,0.01 -0.046,0.0167 -0.074,0.0206c0,0 0,0 0,0c-0.055,0.008 -0.122,0.004 -0.2004,-0.0118c0,0 0,0 0,0l0,0c-0.1566,-0.0313 -0.3592,-0.10907 -0.6066,-0.23249l0,0c-0.4933,-0.24605 -1.163,-0.67255 -2.0003,-1.27311l0,0c-1.6637,-1.19331 -3.972,-3.0609 -6.8598,-5.56086l0,0c-5.669,-4.9075 -13.4737,-12.16323 -22.8507,-21.43273l0,0c-17.3656,-17.16533 -40.58686,-41.61765 -63.8535,-70.02434c-1.36035,-1.66072 -2.72252,-3.33706 -4.08448,-5.02819c-9.74041,-12.09464 -18.53368,-23.78604 -26.51006,-35.41731c-9.45073,-13.76902 -16.91672,-26.15497 -22.82152,-38.59274c0,0 0,0 0,0c-2.88698,-6.07807 -5.16765,-11.75706 -6.87756,-17.32635c-1.70871,-5.53305 -2.69184,-10.55757 -2.93623,-15.34318c-0.28021,-5.05133 0.45741,-9.29453 1.86867,-12.72024c0.87212,-2.09363 1.97428,-3.73534 3.03915,-4.95395c2.56232,-2.92368 4.62861,-3.39085 4.82413,-3.14248c0.29194,0.37084 -1.09564,1.77719 -2.58524,4.69299c-0.63458,1.23676 -1.24973,2.75832 -1.67265,4.59263c-0.72051,3.04992 -0.78485,6.53242 -0.10813,10.99217c0.66299,4.23437 1.96308,8.58915 3.93956,13.67144c1.991,5.09159 4.4719,10.25765 7.55907,15.96235c0,0 0.00001,0.00001 0.00001,0.00001c6.36008,11.748 13.9228,23.26315 23.56726,36.69439c8.1127,11.28749 16.8382,22.616 26.5026,34.61774c1.34687,1.6726 2.6923,3.33391 4.03394,4.98262c22.72199,27.92006 45.43558,53.46358 61.29918,71.44326l0,0c8.6284,9.77885 15.7544,17.87732 20.5028,23.53887l0,0c2.4406,2.90991 4.3046,5.23532 5.49,6.88591l0,0c0.5991,0.83411 1.0289,1.50118 1.2779,1.99071l0,0c0.125,0.24584 0.2046,0.44738 0.2376,0.6033l0,0c0,0 0,0 0,0c0.017,0.0781 0.021,0.14488 0.014,0.20004c0,0 0,0 0,0c0,0.0276 -0.01,0.0523 -0.02,0.0742c-0.01,0.0221 -0.022,0.0413 -0.038,0.0574l0.0003,-0.00006z"  id="svg_1720" stroke-width="1px" style="vector-effect: non-scaling-stroke;"/>
  <path class="hair"  d="m1071,448c-1.2103,0.72816 -10.7339,-12.62605 -25.0677,-34.68707c0,0 0,0 0,-0.00001c-13.031,-20.46936 -30.1323,-49.03037 -47.10842,-81.11476c-0.49149,-0.9289 -0.98309,-1.86113 -1.4746,-2.79656c-7.72713,-14.70574 -14.60546,-28.62185 -20.75362,-42.15024c0,0 -0.00001,-0.00001 -0.00001,-0.00001c-6.87416,-15.11873 -12.18289,-28.21929 -16.33135,-40.88552c0,0 -0.00001,0 -0.00001,0c-2.04477,-6.24055 -3.62459,-11.87363 -4.79424,-17.27768c-1.16465,-5.35204 -1.80667,-9.95256 -1.91458,-14.30298c0,0 0,0 0,0c-0.14257,-4.33559 0.36853,-7.78131 1.54721,-10.66015c0.63825,-1.55818 1.47743,-2.74869 2.33727,-3.59879c1.95574,-1.92041 3.46248,-1.72137 3.56005,-1.52623c0.17182,0.34364 -0.87327,1.11859 -1.79137,2.89341c-0.44229,0.83962 -0.79314,1.84178 -1.04636,3.17641c-0.50205,2.59788 -0.36799,5.25352 0.2117,9.30224c0,0 0,0 0,0c0.61041,3.98971 1.64242,8.04681 3.20627,13.11766c1.57583,5.08483 3.46797,10.30601 5.83977,16.29185c0,0 0,0 0,0.00001c4.86601,12.27665 10.43899,24.49612 17.70344,39.46292c0.00001,0 0.00001,0.00001 0.00001,0.00001c6.46941,13.322 13.3473,26.79079 21.07844,41.50575c0.014,0.0258 1.4491,2.75379 1.4626,2.77956c16.4327,31.18193 33.2754,61.531 44.4515,82.10181c0,0.00001 0,0.00001 0,0.00001c12.759,22.97195 20.0943,37.64023 18.884,38.36836z"  id="svg_1719" stroke-width="1px" style="vector-effect: non-scaling-stroke;"/>
  <path class="hair"  d="m915.37258,502.38478c-0.0235,0.0149 -0.0375,0.0331 -0.0541,0.0385c0,0 0,0 0,0c-0.009,0.003 -0.0176,0.003 -0.0309,0.002c-0.0278,-0.001 -0.0757,-0.008 -0.11926,-0.0175c0,0 0,0 0,0c-0.0912,-0.0205 -0.25225,-0.0745 -0.41361,-0.15934c0,0 0,0 0,0l0,0c-0.32248,-0.16029 -0.86577,-0.49396 -1.46277,-0.91916l0,0c-1.17789,-0.83449 -3.08901,-2.34958 -5.26166,-4.20044l0,0c-4.29098,-3.65377 -10.73505,-9.53887 -18.10109,-16.73453l0,0c-14.04906,-13.72281 -33.27995,-33.87347 -52.5996,-57.69792c-4.16129,-5.13139 -8.35201,-10.46466 -12.50612,-15.97823c-4.98573,-6.61733 -9.6778,-13.1746 -14.08822,-19.70838c-8.62833,-12.77635 -15.73421,-24.79028 -21.52389,-36.68084c-6.39121,-13.08889 -10.34021,-24.36114 -12.37982,-34.94098c0,0 0,-0.00001 0,-0.00001c-1.8721,-9.50197 -1.64539,-16.83823 -0.6438,-22.12124c0.97157,-5.12464 2.4845,-7.57181 2.98387,-7.43829c1.14817,0.30698 -1.08611,11.10572 3.76513,28.09764c0,0 0,0.00001 0,0.00001c2.86038,9.85972 7.20715,19.94965 13.96662,32.45069c6.11839,11.28288 13.28242,22.61527 21.94398,35.07549c4.41286,6.34507 9.05478,12.73462 13.96289,19.24796c4.08496,5.42097 8.18534,10.70346 12.23213,15.81659c18.51572,23.39373 37.25601,44.84351 49.74376,59.30957l0,0c6.97124,8.07558 12.08285,14.03084 15.85304,18.78215l0,0c1.86573,2.35191 3.15019,4.0841 3.99853,5.46182l0,0c0.41365,0.67341 0.6775,1.17608 0.81154,1.5943l0,0c0,0 0,0 0,0c0.0602,0.19446 0.092,0.34454 0.0813,0.48126c0,0 0,0 0,0c-0.005,0.0583 -0.0143,0.10021 -0.039,0.14413c-0.009,0.0168 -0.0187,0.0298 -0.0334,0.0427c0,0 0,0 0,0c-0.0292,0.0256 -0.062,0.0371 -0.0854,0.052l-0.00015,0.00005z"  id="svg_1718" stroke-width="1px" style="vector-effect: non-scaling-stroke;"/>
  <path class="hair"  d="m783,760c0.60323,0.2742 1.19271,4.61943 -4.55765,9.00883c-2.70651,2.08666 -6.28886,3.798 -10.66536,4.78093c-7.73178,1.7769 -16.98935,1.59049 -26.72351,-1.47657c-0.79215,-0.24455 -1.5856,-0.50864 -2.37874,-0.79321c-3.71022,-1.33121 -7.17276,-3.02417 -10.32901,-5.04433c-4.03761,-2.56863 -7.41935,-5.67202 -10.01839,-9.14518c-3.01007,-4.02037 -4.58383,-8.31895 -5.09651,-12.17545c0,0 0,0 0,0c-1.15836,-9.38941 3.13917,-13.33122 3.76917,-13.15502c1.26859,0.35479 0.48728,5.46695 2.87495,11.62086c0,0 0,0 0,0c0.99686,2.67423 2.67305,5.46081 5.19683,8.13935c2.21629,2.35649 5.00188,4.45473 8.35363,6.39967c2.63021,1.51448 5.50995,2.82361 8.62983,3.94466c0.66676,0.23959 1.33534,0.46729 2.0042,0.68383c8.40456,2.6574 15.832,3.49867 22.43384,2.98353c3.71441,-0.30841 6.48262,-0.87851 8.9324,-1.84275c4.46577,-1.75849 6.56861,-4.38629 7.57432,-3.92915z"  id="svg_1714" stroke-width="1px" style="vector-effect: non-scaling-stroke;"/>
  <path class="hair"  d="m782,713c0.44423,0.22212 0.88702,1.8357 -1.02316,3.91131c-0.8722,0.95276 -2.11076,1.86764 -3.68287,2.56367c-2.88247,1.29083 -6.41047,1.96968 -10.57976,1.98066c-4.01297,0.049 -8.33115,-0.42103 -12.99296,-1.43662c-4.4458,-0.96153 -9.06279,-2.3773 -13.7511,-4.30455c-0.53537,-0.21618 -1.07273,-0.43911 -1.61144,-0.66909c-9.06036,-3.8679 -16.32768,-8.8186 -21.66347,-14.74113c0,0 0,0 0,0c-3.05046,-3.33501 -5.02927,-6.86404 -5.97832,-10.28041c-2.05163,-7.39016 1.81639,-10.16905 2.28308,-10.02384c1.08915,0.33887 0.88883,3.85759 3.33618,7.73324c1.36313,2.22209 3.25772,4.17579 6.15148,6.62796c0,0 0,0 0,0c5.23055,4.36269 11.44652,7.81726 19.84217,11.48733c0.49222,0.21517 0.9841,0.42778 1.47459,0.63785c4.25247,1.78768 8.32689,3.25113 12.26176,4.45489c4.18522,1.27173 7.74429,2.15661 11.19858,2.73891c3.75208,0.58199 6.07776,0.84207 8.56593,0.6385c1.27519,-0.10334 2.13664,-0.22512 2.99012,-0.46836c1.55839,-0.42589 2.61887,-1.13048 3.17919,-0.85032z"  id="svg_1713" stroke-width="1px" style="vector-effect: non-scaling-stroke;"/>
  <path class="hair"  d="m789,667c0.32175,0.1287 0.95719,1.47861 -0.80915,3.05383c0,0 0,0 0,0c-0.82068,0.7779 -1.96486,1.46324 -3.36248,1.95095c-2.75775,1.00111 -6.07682,1.43621 -10.16131,1.34281c-3.96671,-0.0619 -8.31514,-0.57769 -13.09577,-1.61189c-4.5447,-0.97859 -9.34455,-2.39616 -14.26172,-4.34233c-1.40582,-0.54612 -2.82878,-1.13696 -4.25742,-1.77782c-8.46765,-3.79845 -15.38688,-8.58263 -20.61021,-14.32281c0,0 -0.00001,-0.00001 -0.00001,-0.00001c-3.38034,-3.68366 -5.55796,-7.61578 -6.62403,-11.3995c-2.31507,-8.38535 1.61682,-12.02859 2.1821,-11.89323c1.19551,0.28625 0.94764,4.63324 3.8169,9.51587c1.45593,2.55902 3.56077,4.94063 6.66709,7.65783c0,0 0,0 0,0c4.94993,4.29817 10.91704,7.76962 18.69207,11.2922c1.29812,0.58813 2.60004,1.15721 3.88757,1.70773c4.46981,1.87606 8.75884,3.42096 12.84244,4.72149c4.37064,1.3859 8.02454,2.37554 11.56075,3.14135c3.92132,0.8031 5.94545,1.19764 8.52156,1.29578c1.25458,0.0307 1.83014,0.0746 2.63698,-0.0257c0,0 0,0 0,0c0.87734,-0.11748 2.13544,-0.40223 2.37464,-0.30655z"  id="svg_1712" stroke-width="1px" style="vector-effect: non-scaling-stroke;"/>
  <path class="hair"  d="m801,609c0.001,1.31061 -6.22808,2.75656 -16.48076,3.31698c-10.02377,0.5479 -24.80198,0.24274 -40.10303,-3.60601c-1.69349,-0.42597 -3.36121,-0.88678 -5.00302,-1.38239c-6.05129,-1.81559 -11.60157,-4.229 -16.50246,-7.54881c-3.80241,-2.54823 -6.92697,-5.68886 -9.13481,-9.28171c-1.90826,-3.14649 -2.82907,-6.45199 -3.02099,-9.47003c-0.17448,-3.06069 0.38265,-5.7102 1.12488,-7.7417c0.82366,-2.26049 1.89785,-3.90651 2.78477,-4.91915c1.07454,-1.21948 1.9159,-1.64687 2.33543,-1.36719c0.37321,0.24881 0.40184,1.15942 0.21009,2.55908c-0.14262,1.16424 -0.40769,2.87146 -0.47315,4.76072c-0.0545,1.70835 0.0455,3.74735 0.60428,5.75406c0.53034,1.96534 1.53747,4.01022 3.06563,5.90395c1.78217,2.25829 4.2805,4.1752 7.42897,6.03279c4.13956,2.4102 8.8751,4.14984 14.40839,5.7685c1.51504,0.44026 3.05356,0.85882 4.61891,1.25706c13.74903,3.49789 28.45847,5.01325 37.89593,6.19107c9.99181,1.24701 16.2397,2.33413 16.24094,3.77278z"  id="svg_1711" stroke-width="1px" style="vector-effect: non-scaling-stroke;"/>
  <path class="hair"  d="m821,579c0,0.27727 -0.25121,0.41338 -0.71859,0.57173c-0.32391,0.0958 -0.73052,0.15093 -1.2335,0.1763c-0.98357,0.049 -2.2418,-0.0355 -3.83343,-0.25317c-3.11493,-0.42658 -7.16597,-1.32899 -12.16397,-2.79518c-9.31303,-2.72965 -21.55044,-7.31316 -34.50444,-14.24352c-2.82981,-1.50471 -5.71517,-3.12959 -8.59943,-4.8872c-9.87775,-6.01929 -18.01127,-12.5518 -24.50434,-19.81047c0,0 -0.00001,-0.00001 -0.00001,-0.00001c-4.78561,-5.33583 -8.0667,-10.6561 -10.06327,-15.79625c-4.17072,-10.71542 -1.18825,-17.00331 -0.37902,-16.96224c1.26757,0.0643 1.62767,6.25167 6.34379,14.08856c2.45294,4.08249 5.74485,8.07739 10.43307,12.55921c0,0 0,0 0,0c6.43194,6.13509 13.96461,11.62169 23.38549,17.36101c2.72631,1.66091 5.46931,3.25821 8.14967,4.78507c12.22947,6.9249 23.66806,12.35832 32.20545,16.47523c4.34198,2.09204 8.45458,4.09452 10.92108,5.40404c1.33584,0.70809 2.47452,1.36792 3.20847,1.86158c0.38857,0.26028 0.70628,0.51003 0.92066,0.7131c0.28431,0.22768 0.43232,0.60094 0.43232,0.75221z"  id="svg_1710" stroke-width="1px" style="vector-effect: non-scaling-stroke;"/>
  <path class="hair"  d="m1259,520c-0.4047,-1.20275 3.6677,-3.79666 10.6679,-7.08197c0,0 0,0 0,0c6.4319,-3.22875 15.247,-7.33088 24.8698,-12.43963c2.446,-1.30553 4.974,-2.67729 7.482,-4.10138c7.156,-4.06349 12.9593,-7.88763 18.1144,-12.13303c0,0 0,0 0,0c3.9754,-3.28305 6.8193,-6.12933 9.1248,-9.11362c4.3204,-5.60627 5.4651,-10.2077 6.7411,-10.13037c0.9673,0.0586 2.8775,5.26856 -1.0217,13.5406c-1.8865,4.02968 -4.791,8.15664 -8.853,12.23808c0,0 0,0 0,0c-5.2162,5.25761 -11.5864,10.00336 -19.155,14.30876c-2.687,1.52852 -5.3692,2.91362 -7.9836,4.17184c-10.3293,5.00063 -20.0058,8.1828 -27.1275,9.90654c0,0 0,0 0,0c-7.6383,1.63951 -12.4543,2.03745 -12.8592,0.83418z"  id="svg_1709" stroke-width="1px" style="vector-effect: non-scaling-stroke;"/>
  <path class="hair"  d="m1279,541c-0.2731,-1.22681 4.3199,-3.42743 12.0781,-6.05436c0,0 0,0 0,0c6.9133,-2.59052 16.9368,-6.13235 27.2524,-10.6774c2.9696,-1.31843 6.0409,-2.73114 9.0776,-4.24456c7.3261,-3.65122 13.3617,-7.35189 18.5922,-11.58964c0,-0.00001 0,-0.00001 0,-0.00001c4.2724,-3.46098 7.3878,-6.72149 9.7798,-10.06678c4.848,-6.73706 5.881,-12.43662 7.2199,-12.36725c0.8886,0.046 3.2214,6.11586 -1.2098,15.78436c-2.0492,4.4566 -5.2672,9.03188 -9.8146,13.38867c0,0 0,0 0,0c-5.5058,5.27909 -12.2064,9.87408 -20.0883,13.81873c-3.2947,1.64892 -6.5867,3.08031 -9.7784,4.33232c-11.3221,4.47909 -21.8564,6.90025 -29.5038,8.0117c0,0 0,0 0,0c-8.234,0.93323 -13.3318,0.89163 -13.6051,-0.33578z"  id="svg_1708" stroke-width="1px" style="vector-effect: non-scaling-stroke;"/>
  <path class="hair"  d="m1306,593c0.043,-1.07654 3.3958,-1.94157 8.9617,-2.53068c0,0 0,0 0,0c4.9211,-0.92306 11.7326,-2.35364 18.7255,-5.48107c4.8142,-2.12433 9.7198,-5.09427 14.2431,-9.04651c2.1455,-1.87462 4.0837,-3.86523 5.8121,-5.93238c0,0 0,0 0,0c6.4844,-7.6199 10.3375,-16.62383 12.8636,-22.78412c2.6107,-6.36684 4.1155,-10.41792 5.394,-10.22525c1.1038,0.16633 1.8838,4.57621 0.8177,11.89475c-1.0416,7.15035 -4.0334,17.5731 -11.4128,27.25658c0,0 0,0.00001 0,0.00001c-2.0019,2.58661 -4.3042,5.04792 -6.8975,7.31527c-5.4767,4.78818 -11.5466,8.10206 -17.4917,10.13501c-8.7228,2.94287 -16.637,3.21907 -22.0702,2.65316c0,0 0,0 0,0c-5.7083,-1.04643 -8.9891,-2.17678 -8.9455,-3.25477z"  id="svg_1707" stroke-width="1px" style="vector-effect: non-scaling-stroke;"/>
  <path class="hair"  d="m1318,667.99999c-1.058,-1.82304 6.4129,-8.24583 17.7507,-15.66396c0,0 0,0 0,0c3.1919,-2.55795 6.5581,-5.34495 10.0126,-8.40929c7.7541,-6.87826 12.9653,-12.47885 17.7312,-17.68206c4.3645,-4.76493 7.2476,-7.91066 8.5055,-7.24469c1.174,0.62153 0.4863,5.00258 -2.7577,11.28649c-3.3052,6.40247 -8.9236,14.06042 -17.1203,21.31755c-3.7829,3.34918 -7.6366,6.18926 -11.3439,8.53942c0,0 0,0 0,0c-12.3926,6.35011 -21.7186,9.6822 -22.7781,7.85654z"  id="svg_1706" stroke-width="1px" style="vector-effect: non-scaling-stroke;"/>
  <path class="hair"  d="m1322,713c0,-0.062 0,-0.12296 0.018,-0.1846c0,0 0,0 0,0c0.013,-0.0592 0.032,-0.11834 0.057,-0.17744c0,0 0,0 0,0c0.051,-0.11744 0.1267,-0.23666 0.2262,-0.35555l0,0l0,0c0.194,-0.23502 0.4839,-0.48289 0.8526,-0.73625l0,0c0.7147,-0.49117 1.829,-1.08874 3.1245,-1.75282l0,0c2.9138,-1.49349 6.1663,-3.13319 10.4603,-6.02908l0,0c3.6787,-2.48254 7.3802,-5.49232 11.2319,-9.30544c0.973,-0.96332 1.9135,-1.93619 2.8209,-2.90884c0,0 0,0 0,0c5.2121,-5.58503 9.4461,-11.43251 12.5749,-15.46755c3.1843,-4.1067 5.4406,-6.60949 6.6334,-6.08243c1.8465,0.81591 0.017,14.33253 -11.8043,28.1479c0,0 0,0 0,0c-0.9929,1.15977 -2.0536,2.30524 -3.1832,3.42358c-4.4439,4.3998 -9.24,7.6763 -13.9682,9.89571l0,0c-5.34,2.50631 -10.1399,3.40004 -13.6354,3.38875l0,0c-1.7033,-0.006 -3.0486,-0.22861 -3.9766,-0.57211l0,0c-0.4647,-0.17209 -0.8202,-0.36985 -1.0618,-0.58778l0,0l0,0c-0.1195,-0.10911 -0.2103,-0.22105 -0.2722,-0.33678c0,0 0,0 0,0c-0.031,-0.0578 -0.055,-0.11614 -0.071,-0.17503c0,0 0,0 0,0c-0.017,-0.0613 -0.026,-0.1222 -0.027,-0.18424z"  id="svg_1705" stroke-width="1px" style="vector-effect: non-scaling-stroke;"/>
  <path class="hair"  d="m1324,758c-0.4204,-1.88219 5.3265,-4.88095 13.7448,-7.57433c3.018,-1.74361 6.045,-3.86696 9.1843,-6.57335c0.943,-0.81298 1.8513,-1.64003 2.7252,-2.47081c0,0 0,0 0,0c4.5589,-4.1972 8.3654,-8.74852 11.1969,-11.85471c2.8901,-3.17041 4.9934,-5.08801 6.1488,-4.52681c1.8075,0.87794 0.3654,12.28821 -10.417,23.44408c0,0 0,0 0,0c-1.0735,1.0797 -2.228,2.13377 -3.462,3.1457c-4.0871,3.35165 -8.4235,5.73272 -12.5827,7.21969c-9.5497,1.31126 -16.1159,1.08149 -16.5383,-0.80946z"  id="svg_1704" stroke-width="1px" style="vector-effect: non-scaling-stroke;"/>
  <path class="hair"  d="m1231,492c-1.1185,-0.54031 2.3976,-10.43307 9.1066,-26.33141c0,0 0,-0.00001 0,-0.00001c5.9262,-15.03373 14.1984,-36.03662 21.8704,-59.97016c2.2389,-6.99789 4.4712,-14.31296 6.5435,-21.7914c4.9507,-17.8659 8.2065,-33.87331 9.91,-49.24947c0,0 0,-0.00001 0,-0.00001c1.4126,-12.78877 1.5392,-23.28443 0.6267,-32.8191c-1.7471,-18.00938 -7.1745,-28.17824 -6.0572,-28.83844c0.8846,-0.5227 9.0222,8.34975 12.727,27.87425c1.8964,9.92149 2.5437,21.26407 1.625,34.57955c0,0 0,0 0,0.00001c-1.0979,15.99357 -4.1312,32.86733 -9.1834,51.12486c-2.1255,7.68127 -4.4715,15.11702 -6.8868,22.19604c-8.2994,24.3725 -17.7643,45.10011 -25.2825,59.65506c0,0 0,0 0,0c-8.3155,15.20329 -13.8806,24.11063 -14.9993,23.57023z"  id="svg_1724" stroke-width="1px" style="vector-effect: non-scaling-stroke;"/>

  <!-- Face -->
  <path class="face"  d="m1301.0765,773.82093c-1.1797,-0.0867 -0.8246,-19.74307 0.7219,-52.4254c-0.2436,-14.78613 -1.1603,-32.58832 -3.7954,-51.94656c-2.4391,-17.96066 -6.4063,-37.82501 -13.1224,-57.85326c-6.2477,-18.61477 -14.9884,-37.74144 -27.261,-55.19544c-1.8044,-2.56869 -3.6881,-5.10113 -5.6502,-7.59107c-11.8178,-14.99683 -25.6777,-27.44472 -40.6002,-36.97961c-23.0762,-14.79216 -48.5117,-22.58823 -70.9299,-26.55515c-29.4371,-5.20781 -56.996,-4.56809 -74.0684,-3.77601c-17.9951,0.83489 -28.19,1.97891 -28.3381,0.9945c-0.1053,-0.70012 9.8474,-3.45461 27.9337,-5.71229c17.3151,-2.16141 45.0196,-4.13272 75.784,0.35511c23.364,3.40824 50.077,11.05867 74.8083,26.48299c15.9639,9.98679 30.7458,23.1084 43.2668,39.00013c2.0784,2.63792 4.0708,5.32236 5.9762,8.04675c12.9215,18.49334 21.9238,38.54796 28.1285,57.96717c6.6778,20.88114 10.3383,41.3753 12.3045,59.82002c2.1258,19.98679 2.35,38.16558 1.8099,53.20301c-3.2644,32.74538 -5.7883,52.25186 -6.9682,52.16511z"  id="svg_1767" stroke-width="1px" style="vector-effect: non-scaling-stroke;"/>
  <path class="face"  d="m794.78802,787.96306c-1.0937,0.008 -2.21936,-14.88059 -3.23539,-40.21902c0.3325,-12.11741 1.49812,-26.6555 4.26449,-42.86911c2.6755,-15.64097 6.8722,-32.89211 13.3493,-50.78052c6.37659,-17.61232 14.97296,-35.77815 26.33475,-53.36432c3.36709,-5.21016 6.96962,-10.35148 10.8092,-15.39935c9.93026,-13.05523 20.84448,-24.69585 32.33685,-34.88262c20.84941,-18.46997 43.12097,-31.78256 63.51816,-41.19694c50.81711,-23.44696 87.36512,-24.01742 87.38212,-23.92982c0.3217,1.66213 -35.78117,7.13978 -83.82754,31.30825c-19.49879,9.8054 -40.74918,23.13271 -60.56413,41.08512c-10.93359,9.89985 -21.35041,21.13306 -30.8862,33.67002c-3.68743,4.84796 -7.15755,9.77857 -10.41208,14.76952c-10.98797,16.84541 -19.47356,34.27048 -25.96107,51.19215c-6.5904,17.19165 -11.12175,33.85009 -14.28745,49.00639c-3.27072,15.61632 -5.10229,29.71131 -6.20261,41.54376c-0.62763,25.16208 -1.525,40.05808 -2.6184,40.06649z"  id="svg_1766" stroke-width="1px" style="vector-effect: non-scaling-stroke;"/>
  <path class="cheek"  d="m1021.0622,1268.7957c-0.1621,0.9037 -11.0476,-0.1756 -30.0142,-2.8301c0,0 -0.00001,0 -0.00001,0c-19.26337,-4.7771 -44.51405,-14.8851 -71.75676,-35.2082c-27.05095,-20.2348 -52.33303,-47.7327 -74.54386,-83.0762c-3.23443,-5.1469 -6.31339,-10.3167 -9.24331,-15.4838c0,0 0,0 0,0c-27.99955,-49.3516 -43.47646,-98.9983 -52.13289,-134.05015c-8.77995,-35.55191 -11.15575,-57.75056 -10.14844,-57.95386c1.28583,-0.25951 6.31549,21.44471 16.71706,56.16065c10.24504,34.19346 26.68159,82.88856 54.22227,130.90456c0.00001,0 0.00001,0.0001 0.00001,0.0001c2.88901,5.0339 5.90915,10.0726 9.06581,15.0902c21.69969,34.4925 45.64853,61.3253 71.32324,81.5547c25.71102,20.3172 49.20754,31.0539 67.64073,37.1608c0,0.0001 0.00001,0.0001 0.00001,0.0001c18.45914,4.0577 29.03234,6.8279 28.87034,7.7312z"  id="svg_1777" stroke-width="1px" style="vector-effect: non-scaling-stroke;"/>
  <path class="cheek"  d="m1298.248,903.92857c1.2041,0.29942 -3.0734,22.20619 -11.1387,58.26162c0,0 0,0.00001 0,0.00001c-8.6067,32.99785 -22.8692,78.872 -45.6176,127.3413c-7.21,15.3592 -15.3375,31.0752 -24.5597,46.6616c-4.2959,7.2605 -8.7235,14.314 -13.2925,21.1615c-15.162,22.7348 -31.3734,42.3663 -49.0115,58.9294c-20.3738,19.1443 -41.0565,32.3873 -60.9143,40.8917c0,0 0,0 0,0c-43.9232,18.7772 -72.6447,11.1206 -72.6515,11.62c0.019,-1.3922 29.7238,0.9271 69.7253,-18.109c0,0 0,0 0,0c18.7667,-8.9143 38.1411,-22.1583 57.5334,-41.0047c16.7888,-16.3265 32.2668,-35.536 47.0316,-57.8345c4.4433,-6.7141 8.7635,-13.6275 12.9742,-20.7455c9.0368,-15.2761 17.0952,-30.6938 24.3366,-45.7634c22.7876,-47.4117 38.0943,-92.57247 48.166,-124.82758c0,0 0,-0.00001 0,-0.00001c9.7348,-35.52879 16.2147,-56.88182 17.4187,-56.58244z"  id="svg_1776" stroke-width="1px" style="vector-effect: non-scaling-stroke;"/>
  <path class="cheek"  d="m1070,1261c0.2033,0.5439 -2.0353,1.9461 -5.9151,3.8261c0,0 0,0 0,0c-3.4042,1.4482 -8.5405,3.1343 -14.4441,3.5014c0,0 0,0 0,0c-2.0457,0.1271 -4.2393,0.074 -6.477,-0.3015c-0.5427,-0.091 -1.081,-0.1998 -1.6143,-0.3272c-2.7503,-0.6522 -5.2591,-1.8725 -7.3127,-3.5836c-2.5495,-2.172 -4.0702,-4.8852 -4.8684,-7.3466c0,0 0,0 0,0c-2.2161,-6.8986 -0.2007,-11.0918 0.059,-11.0887c0.7365,0.01 0.7421,4.4847 3.3085,9.7628c0,0 0,0 0,0c0.909,1.8767 2.2841,3.8817 4.2075,5.296c1.5408,1.1705 3.4775,2.0018 5.6612,2.523c0.4301,0.1017 0.8681,0.1895 1.3141,0.2643c1.834,0.3079 3.7201,0.3827 5.5383,0.3503c0,0 0,0 0,0c5.1448,-0.091 10.2263,-1.1804 13.6383,-1.9107c0,0 0,0 0,0c4.0953,-1.1013 6.7013,-1.5091 6.9045,-0.9656l0.0002,0z"  id="svg_1700" stroke-width="1px" style="vector-effect: non-scaling-stroke;"/>
  <path class="cheek" d="m1029,1251.2739c-0.02,-0.01 -0.1127,-0.064 -0.1822,0c-0.052,0.044 -0.08,0.1008 -0.1043,0.1657l0,0l0,0l0,0c-0.073,0.1816 -0.1,0.3844 -0.1337,0.6836l0,0l0,0c-0.062,0.5588 -0.086,1.3618 -0.1973,2.3229l0,0c-0.1866,1.5539 -0.6955,4.0665 -2.3371,5.7979l0,0c-0.8497,0.9379 -2.0119,1.7006 -3.4071,2.2727l0,0l0,0c-1.7996,0.7378 -3.8369,1.0684 -6.1248,1.2105c-0.5022,0.03 -1.0087,0.051 -1.5197,0.063c-5.9957,0.1404 -12.0272,-1.0458 -15.96899,-1.8129c-4.13937,-0.8056 -6.71423,-1.304 -6.83297,-0.9085c-0.0994,0.331 2.2658,1.5035 6.343,2.8122c3.95306,1.2688 9.99646,2.7956 16.51836,2.6664c0.5469,-0.011 1.0899,-0.033 1.6291,-0.067c2.4885,-0.1507 4.8448,-0.6268 6.9825,-1.5936l0,0l0,0c1.6916,-0.7642 3.106,-1.8596 4.1393,-3.1721l0,0c1.9599,-2.5758 2.1468,-5.5065 1.9877,-7.2568l0,0c-0.09,-1.0257 -0.3043,-1.9073 -0.4614,-2.4088l0,0l0,0c-0.069,-0.2313 -0.1883,-0.5185 -0.2254,-0.6037l0,0l0,0l0,0c-0.019,-0.068 -0.047,-0.1028 -0.059,-0.1296c-0.015,-0.032 0.0003,-0.014 -0.046,-0.038l0,-0.0039z"  id="svg_1701" stroke-width="1px" style="vector-effect: non-scaling-stroke;"/>
  
  <!-- Glasses -->
  <path class="glass" d="m1320,794c-0.5433,1.88102 -33.4447,-5.86226 -80.5487,-18.63405c-19.6922,-2.18893 -41.291,-2.81136 -64.7603,-1.07863c-8.5045,0.62789 -16.8033,1.53204 -24.862,2.65446c0,0 0,0 0,0c-34.459,4.74223 -63.887,13.42503 -84.8658,20.35361c-20.9579,6.92166 -33.3821,11.96123 -33.9632,10.70461c-0.4523,-0.97808 11.0312,-8.0977 31.6894,-16.77222c20.6516,-8.67179 50.3816,-18.74047 85.7364,-24.04077c0,0.00001 0,0 0,0c8.33,-1.235 16.9281,-2.19851 25.7489,-2.82668c24.3168,-1.73172 46.828,-0.66865 67.086,2.26885c47.2473,14.4797 79.2829,25.48853 78.7393,27.37082z"  id="svg_1754" stroke-width="1px" style="vector-effect: non-scaling-stroke;"/>
  <path class="glass"  d="m1007,830c1.1234,0.1665 0.6485,10.5067 -1.0809,27.88355c-1.3847,7.75477 -3.6542,17.07486 -7.38353,27.01252c-3.40842,9.06528 -8.18481,18.93163 -14.91818,28.37155c-6.35277,8.90747 -14.60349,17.45776 -24.84114,24.215c-4.79326,3.14731 -9.95737,5.84522 -15.41987,8.05027c-6.97312,2.81486 -14.13796,4.70802 -21.23203,5.78583c-17.83062,2.68511 -35.01467,0.65463 -49.31469,-2.64045c-19.52131,-4.48217 -35.87526,-11.58877 -46.05495,-16.70213c-10.57105,-5.30994 -16.12225,-9.22109 -15.75471,-9.97614c0.43279,-0.88911 6.74267,1.46515 17.72912,5.34435c10.37923,3.6648 27.20747,9.50015 45.82239,12.89721c13.7568,2.49828 29.93853,4.00012 46.02809,1.31706c6.38251,-1.05513 12.81238,-2.79045 19.03951,-5.29678c4.87951,-1.96394 9.47883,-4.33873 13.73347,-7.09359c9.13022,-5.87699 16.71948,-13.46971 22.76625,-21.41713c6.42482,-8.44635 11.2704,-17.49946 14.97218,-25.88792c4.01942,-9.0844 6.83988,-17.8031 8.89022,-25.09599c3.35177,-16.91088 5.89597,-26.93362 7.01877,-26.76721z"  id="svg_1753" stroke-width="1px" style="vector-effect: non-scaling-stroke;"/>
  <path class="glass"  d="m1058,828c1.0911,-0.1321 3.2725,9.42597 6.0601,25.61376c1.8358,6.98855 4.4252,15.33329 8.2461,24.03077c3.5521,8.11556 8.283,16.84562 14.6202,24.98409c6.0992,7.83804 13.8078,15.25093 23.0565,21.06706c5.5636,3.51695 11.6711,6.43312 18.2091,8.72428c5.242,1.83698 10.5845,3.21027 15.8971,4.18063c16.9278,3.10223 33.9672,2.22311 48.5806,0.31493c19.5828,-2.57121 37.4112,-7.47493 48.5045,-10.57985c11.7018,-3.27526 18.4531,-5.26518 18.8258,-4.33567c0.3196,0.7971 -5.7777,4.41772 -17.1487,9.16121c-10.9871,4.58333 -28.3813,10.77165 -48.8615,14.35517c-15.1398,2.65938 -33.1116,4.00728 -51.6251,0.85464c-5.822,-0.9948 -11.6954,-2.47675 -17.4866,-4.51432c-7.2217,-2.54086 -14.0031,-5.83576 -20.2113,-9.83455c-10.297,-6.66302 -18.6555,-15.04752 -25.0788,-23.88156c-6.6506,-9.15325 -11.3172,-18.73469 -14.5794,-27.56067c-3.5326,-9.58541 -5.5756,-18.55902 -6.7508,-26.01147c-1.1843,-16.6231 -1.3495,-26.43627 -0.2578,-26.56845z"  id="svg_1752" stroke-width="1px" style="vector-effect: non-scaling-stroke;"/>
  <path class="glass"  d="m813,923c-0.0119,-0.20278 -0.98317,-0.87619 -2.21299,-1.85441c0,0 0,0 0,0c-0.90616,-0.77741 -1.64129,-1.54511 -2.85346,-2.90389c-2.44128,-2.76012 -4.39164,-5.40548 -7.56887,-10.0404c-2.91825,-4.28156 -5.80655,-8.85726 -9.14761,-14.49778c-3.16929,-5.35395 -6.37974,-11.08492 -9.68356,-17.37321c-1.16466,-2.21961 -2.33389,-4.48666 -3.49487,-6.79212c-5.61408,-11.14847 -9.86301,-20.88066 -13.30407,-30.26364c0,0 0,-0.00001 0,-0.00001c-2.40057,-6.55721 -3.95034,-11.66398 -5.09609,-16.58135c-1.91778,-8.40383 -1.71382,-13.51997 -2.63847,-13.69319c-0.96588,-0.18095 -3.03648,5.04373 -2.28837,14.43717c0.39765,5.24295 1.48834,11.09939 3.46062,17.97206c0,0 0.00001,0 0.00001,0c2.82368,9.86026 6.97072,20.40778 12.68312,31.74699c1.19386,2.36984 2.41078,4.68468 3.63792,6.93835c3.47032,6.38162 7.01553,12.20809 10.57306,17.49704c3.70608,5.51244 7.22402,10.15434 10.70233,14.16063c3.625,4.19087 6.65905,7.09014 9.7211,9.24747c1.54588,1.09744 2.89859,1.81623 4.15861,2.23899c0,0 0,0 0,0c2.2136,0.81162 3.37269,0.12001 3.35159,-0.2387z"  id="svg_1751" stroke-width="1px" style="vector-effect: non-scaling-stroke;"/>
  <path class="glass"  d="m1260.6153,922.04504c0.113,-0.36362 2.1428,0.15367 5.0969,-0.96952c1.5146,-0.56624 3.0368,-1.50042 4.8159,-3.01106c3.5725,-3.04417 6.357,-6.84698 9.9718,-12.77169c3.4702,-5.75183 6.5633,-11.98875 9.9259,-19.58854c2.9529,-6.68242 5.7517,-13.68965 8.5735,-21.31496c0.2475,-0.66892 0.4929,-1.33631 0.7362,-2.00187c6.4796,-17.73294 11.0259,-32.67524 14.6096,-45.34406c2.0665,-7.31526 3.0441,-11.03155 4.1735,-15.80662c0.5567,-2.36792 0.7643,-3.28265 1.0498,-4.82941c0.1348,-0.74405 0.1796,-0.97973 0.2461,-1.48042c0.032,-0.48938 0.1505,-0.90119 0.1855,-0.92689c0.1285,-0.0943 0.4898,0.11827 0.7097,0.81697c0.1542,0.43301 0.2588,0.95593 0.3289,1.64179c0.1439,1.37835 0.1267,2.95987 -0.041,5.16021c-0.3337,4.41244 -1.1227,9.48793 -2.5658,16.42475c-2.6544,12.77577 -6.8952,28.56751 -13.331,46.29754c-0.2449,0.67501 -0.4928,1.35185 -0.7438,2.03024c-2.8518,7.7089 -5.8185,14.86296 -8.9961,21.58907c-3.5939,7.61591 -7.1376,14.04511 -11.0754,19.7751c-3.9844,5.85374 -7.6663,9.9236 -11.9054,12.78243c-2.1689,1.4703 -4.2327,2.30005 -6.1151,2.63834c-4.0713,0.72116 -5.6775,-1.02088 -5.6494,-1.1114l-0.0003,0z"  id="svg_1750" stroke-width="1px" style="vector-effect: non-scaling-stroke;"/>
  <path class="glass"  d="m1007,829.99998c-0.6989,-0.85823 0.23,-2.92983 2.4343,-5.79179c0,0 0,0 0,0c2.3015,-2.58746 6.1716,-5.69885 11.5305,-7.95458c3.2131,-1.34453 6.9107,-2.29299 10.9183,-2.53543c2.6076,-0.15774 5.1511,-0.004 7.5737,0.42166c0,0 0,0 0,0c7.0547,1.32747 12.2423,4.71737 15.2405,7.60205c3.0541,2.93839 4.0159,5.39983 3.3027,6.25811c-0.7751,0.93273 -3.1507,0.21414 -6.6328,-0.97002c-3.3919,-1.15344 -8.1651,-2.8621 -13.2735,-3.26383c0,0 0,0 0,0c-1.7854,-0.17013 -3.6494,-0.19902 -5.5929,-0.0749c-2.9742,0.19 -5.8386,0.71952 -8.4644,1.40423c-4.3301,1.1145 -8.1549,2.71478 -11.0195,3.81398c0,0 0,0 0,0c-3.1063,1.46558 -5.3194,1.94704 -6.0169,1.0905l0,0.00002z"  id="svg_1698" stroke-width="1px" style="vector-effect: non-scaling-stroke;"/>
  <path class="glass"   d="m757.00001,809c-0.46644,-0.80014 5.28226,-5.15445 15.7584,-12.12026c0,0 0,0 0,0c11.82781,-6.62873 28.70706,-13.73395 51.41148,-18.68305c20.45989,-4.44463 43.48806,-6.63488 68.95297,-5.6783c6.07282,0.22813 12.04325,0.62626 17.88703,1.16533c0.00001,0 0.00001,0 0.00001,0c35.27664,3.2525 65.77046,11.51904 86.95353,18.76027c21.27757,7.27355 33.42807,13.49656 33.03657,14.55601c-0.4897,1.32501 -13.4412,-2.69156 -34.93795,-8.18572c-21.38438,-5.46545 -51.60712,-12.41059 -85.91684,-15.24536c0,0 0,0 -0.00001,0c-5.69353,-0.47014 -11.50051,-0.82918 -17.39778,-1.05047c-24.77588,-0.92966 -46.91122,0.72956 -66.8774,4.27697c-22.17539,3.92091 -38.37222,9.44916 -50.72366,14.56037c0,0 0,0 0,0c-11.06378,5.59118 -17.68013,8.44398 -18.14635,7.64421z"  id="svg_1755" stroke-width="1px" style="vector-effect: non-scaling-stroke;"/>
  
  <!-- Nose -->
  <path class="nose"  d="m958.99999,935.00001c0.98538,0.67037 -0.22765,4.40275 -3.00331,10.00521c-1.83635,4.52632 -4.62358,11.37844 -5.31306,18.23116c-0.31785,3.02504 -0.31643,6.21626 0.39465,9.17319c0.19061,0.83707 0.44111,1.67254 0.74944,2.49892c0.80403,2.15494 1.96264,4.14623 3.33728,5.86772c2.67896,3.4374 6.55121,6.10612 10.0935,8.18722c10.34623,6.01081 19.05514,8.25936 18.74152,10.03657c-0.20591,1.1668 -9.33098,2.9336 -22.44591,-2.35024c-4.53184,-1.80756 -9.64958,-4.76623 -13.89839,-9.54124c-2.17241,-2.48467 -3.96791,-5.42362 -5.19194,-8.70984c-0.46868,-1.25829 -0.84377,-2.54154 -1.12441,-3.83897c-0.93836,-4.51543 -0.77914,-8.88997 -0.0263,-12.77459c1.76632,-8.93767 6.04088,-15.90077 9.36457,-20.14282c4.30625,-4.80443 7.33575,-7.31352 8.32238,-6.64229l-0.00002,0z"  id="svg_1748" stroke-width="1px" style="vector-effect: non-scaling-stroke;"/>
  <path class="nose"  d="m1046,990.99999c-0.9351,-0.83508 -0.014,-3.58375 2.3048,-7.49749c0,0 0,0 0,0c2.2638,-3.4305 6.1141,-7.85539 11.6029,-11.63233c0,0 0,0 0,0c1.8439,-1.30542 3.9468,-2.52701 6.2864,-3.51462c3.8759,-1.63607 7.9112,-2.42178 11.8758,-2.28021c3.908,0.20882 7.2583,1.47915 9.8044,3.13072c6.4449,4.27776 6.9306,9.12316 6.1257,9.79394c-1.1717,0.9764 -4.5971,-1.65097 -9.4778,-2.95318c-1.9119,-0.53403 -4.1321,-0.82865 -6.4552,-0.62216c-2.4781,0.13994 -5.0415,0.89441 -7.9012,2.1577c-1.7061,0.75364 -3.4294,1.64996 -5.0527,2.53431c0,0 0,0.00001 0,0.00001c-4.513,2.55124 -9.0213,5.8523 -12.0236,7.86107c0,0 0,0 0,0c-3.531,2.63938 -6.1556,3.85617 -7.0895,3.02224z"  id="svg_1747" stroke-width="1px" style="vector-effect: non-scaling-stroke;"/>
  <path class="nose"  d="m966.00002,979.99999c-0.4414,-1.04982 1.25195,-2.89793 4.53077,-5.18758c0,0 0,0 0,0c3.23912,-1.97408 8.23973,-4.05965 14.48002,-4.90857c3.31076,-0.45221 6.95039,-0.49634 10.72164,0.0931c3.13612,0.49016 6.09195,1.37668 8.79855,2.59477c0,0 0,0.00001 0,0.00001c6.6532,3.09842 10.8403,7.82438 12.979,11.46216c2.1807,3.70917 2.3919,6.35523 1.49,6.94614c-0.9904,0.64888 -3.0217,-0.76324 -6.0401,-2.87334c-2.9557,-2.06626 -7.1123,-4.96998 -12.0694,-6.6184c0,0 0,-0.00001 0,-0.00001c-2.05807,-0.72723 -4.27609,-1.27162 -6.67663,-1.63256c-2.8714,-0.43174 -5.74837,-0.56202 -8.44639,-0.53181c-5.00029,0.0575 -9.67028,0.73373 -13.05232,1.11532c0,0 0,0 0,0c-3.77517,0.67826 -6.27448,0.58885 -6.71514,-0.45922l0,-0.00001z"  id="svg_1746" stroke-width="1px" style="vector-effect: non-scaling-stroke;"/>
  <path class="nose" d="m1071.0046,893.00462c0.027,-0.027 0.059,-0.0495 0.095,-0.0674c0.038,-0.0146 0.082,-0.0234 0.1316,-0.0265c0,0 0,0 0,0c0.098,-0.006 0.2184,0.011 0.3594,0.0506c0,0 0,0 0,0l0,0c0.2805,0.079 0.6427,0.24732 1.0824,0.50278l0,0c0.8665,0.50355 2.0241,1.34023 3.4355,2.4983l0,0c2.7055,2.21985 6.3392,5.6158 10.5091,10.06817l0,0c3.8464,4.10619 8.2332,9.20314 12.627,15.10577l0,0c3.9132,5.25233 7.9705,11.3246 11.5036,18.07829c1.4146,2.68723 2.7677,5.53626 3.9502,8.52799c1.3686,3.46225 2.4552,6.9799 3.1837,10.57058c0.6263,3.09483 0.9298,6.24256 0.8025,9.39736c-0.1214,3.07473 -0.7218,6.095 -1.8264,8.92089c-1.1954,3.01447 -2.9501,5.63332 -5.02,7.76755c0,0 0,0 0,0c-2.5784,2.63169 -5.4987,4.49416 -8.2955,5.79463c-7.5477,3.47401 -14.9786,4.06466 -19.3036,4.06122c-4.6492,-0.004 -7.2046,-0.64316 -7.2394,-1.25486c-0.04,-0.70967 2.4528,-1.36548 6.7887,-2.46113c3.8865,-0.98207 10.8919,-2.67283 16.6796,-6.19505c2.1465,-1.29738 4.2886,-2.91455 5.9371,-4.90871c0,-0.00001 0,-0.00001 0,-0.00001c1.3259,-1.58237 2.421,-3.46682 3.1084,-5.52812c0.6663,-1.9482 0.9767,-4.12186 1.0061,-6.42532c0.028,-2.38675 -0.2962,-4.87267 -0.8527,-7.45761c-0.65,-3.02884 -1.6272,-6.06228 -2.8588,-9.14825c-1.0628,-2.66273 -2.2825,-5.28287 -3.5476,-7.82219c-3.1693,-6.31862 -6.8297,-12.25355 -10.2878,-17.52427l0,0c-3.867,-5.88897 -7.7352,-11.27713 -10.9492,-15.69599l0,0c-3.5159,-4.83296 -6.427,-8.74669 -8.3856,-11.5985l0,-0.00001c-1.017,-1.48065 -1.7803,-2.67947 -2.2356,-3.55489l0,0c-0.232,-0.44602 -0.3858,-0.81171 -0.4555,-1.09175l0,0c0,0 0,0 0,0c-0.035,-0.1413 -0.049,-0.26121 -0.041,-0.35901c0,0 0,-0.00001 0,-0.00001c0,-0.0491 0.014,-0.0927 0.029,-0.13065c0.019,-0.0356 0.042,-0.0669 0.069,-0.0939l0.0008,0z"  id="svg_1749" stroke-width="1px" style="vector-effect: non-scaling-stroke;"/>

  <!-- Eye -->
  <path class="eye-brow"  d="m987.99999,778c-0.92541,3.18749 -10.72401,3.49553 -25.94398,1.44349c0,0 0,0 -0.00001,0c-14.07288,-1.51102 -32.75658,-4.4264 -53.62509,-6.79155c-4.46493,-0.48677 -9.09882,-0.98438 -13.68904,-1.42044c-16.424,-1.56024 -29.65369,-2.04671 -42.55328,-0.90587c0,0 0,0 0,0c-9.11473,0.8395 -15.77531,2.02089 -21.93046,4.15913c-3.62467,1.2309 -6.53754,2.53635 -9.12491,3.893c-5.66474,2.94648 -9.10641,5.73081 -11.13322,4.62224c-1.6822,-0.92008 -2.25115,-6.08535 2.66039,-13.40093c2.15364,-3.19927 5.26566,-6.6029 9.44303,-9.71867c6.9066,-5.11777 15.79357,-9.1833 26.40252,-11.6227c0,0.00001 0.00001,0 0.00001,0c14.74773,-3.45336 30.98453,-4.24865 48.6621,-2.56986c5.04813,0.47941 9.95558,1.13453 14.66926,1.8957c22.30208,3.50039 41.47633,9.55881 54.81447,15.24285c0,0 0.00001,0 0.00001,0c14.1512,6.47719 22.27416,11.98424 21.3482,15.17361z"  id="svg_1741" stroke-width="1px" style="vector-effect: non-scaling-stroke;"/>
  <path class="eye-brow"  d="m1085,778c-1.1961,-2.49048 5.8242,-8.65559 18.3992,-16.80777c0,0 0,-0.00001 0,-0.00001c11.9068,-7.24204 29.3297,-15.81091 50.1221,-22.3683c4.9193,-1.55065 10.0551,-2.98797 15.3681,-4.23646c5.0673,-1.19074 10.0878,-2.16085 15.0625,-2.90181c10.6895,-1.60881 20.8458,-2.03677 30.4932,-1.16071c0,0 0,0 0,0.00001c10.7143,0.92555 19.92,3.68783 27.3527,7.6906c0,0 0,0.00001 0,0.00001c16.0249,8.65313 17.637,19.68073 16.2022,20.78445c-1.132,0.87081 -3.4302,-0.19809 -6.9614,-1.89067c-3.5791,-1.71548 -8.3632,-4.00339 -14.6673,-5.54944c0,0 0,0 0,0c-6.4304,-1.61606 -13.51,-2.23407 -22.6169,-2.02191c0,0 0,0 0,0c-8.182,0.23242 -16.6729,1.31965 -26.3197,3.09344c-4.4514,0.82652 -8.9732,1.78998 -13.6206,2.88514c-4.862,1.14571 -9.6537,2.38665 -14.31,3.65205c-19.6615,5.33809 -36.9973,11.17401 -50.0647,15.06503c0,0 0,0 0,0c-14.0519,4.63761 -23.244,6.25545 -24.4394,3.76635z"  id="svg_1740" stroke-width="1px" style="vector-effect: non-scaling-stroke;"/>
  <path class="eye-limit"  d="m1100,822.99999c-0.6097,-0.98987 3.5664,-4.8177 11.1249,-10.46983c0,0 0,0 0,0c7.2715,-4.84011 18.2808,-10.74053 31.9711,-14.53469c6.6592,-1.85309 14.0091,-3.14703 21.7399,-3.39791c7.5439,-0.24482 14.7529,0.52682 21.4856,2.23204c8.7576,2.25102 16.1574,6.00145 22.0002,10.11773c14.302,10.10486 18.4029,20.45875 17.6783,21.05268c-1.2314,1.00934 -8.3666,-7.04293 -21.8535,-14.39981c-5.5968,-3.06314 -12.3317,-5.84112 -20.0155,-7.45752c-5.9116,-1.26885 -12.2289,-1.79255 -18.9549,-1.55166c-6.8761,0.24626 -13.5686,1.27045 -19.7453,2.65676c-12.5971,2.84178 -23.544,7.3279 -31.2181,10.61465c0,0 0,0.00001 0,0.00001c-8.3119,4.12463 -13.6034,6.12677 -14.2127,5.13755z"  id="svg_1739" stroke-width="1px" style="vector-effect: non-scaling-stroke;"/>
  <path class="eye-limit"  d="m1100,822.99999c0.054,-0.0179 1.5351,-0.003 2.1151,0.16736c0,0 0,0 0,0c0.6747,0.12095 1.5079,0.21312 2.6214,0.39178c3.3751,0.50308 3.7262,0.47474 8.48,1.02094c6.6776,0.73608 15.3159,1.55947 24.9366,2.57145c0,0.00026 0.6049,0.0632 0.6073,0.0635c8.4469,0.88499 19.1321,2.09985 24.8807,2.84555c3.2498,0.41794 7.2887,1.01427 9.1791,1.3312c1.1498,0.18978 2.3637,0.43767 3.0555,0.6011c1.0626,0.18283 1.9685,0.71566 2.1243,1.00716c0.2833,0.53012 -0.252,1.30639 -1.6231,2.04733c-0.8513,0.46891 -1.9256,0.87113 -3.2648,1.24056c-2.5702,0.71127 -5.7196,1.18914 -9.6613,1.48975c-7.1679,0.54973 -15.8969,0.41708 -25.7342,-0.61705c-0.2074,-0.0218 -0.4144,-0.0439 -0.621,-0.0663c-10.096,-1.08541 -18.5223,-2.77932 -25.531,-5.14384c-3.639,-1.21715 -6.427,-2.47054 -8.6408,-3.97414c-1.1153,-0.74602 -1.9819,-1.51877 -2.5812,-2.31862c0,0 0,0 0,0c-1.2084,-1.40831 -0.7619,-2.5179 -0.3426,-2.65768l0,-0.00005z"  id="svg_1738" stroke-width="1px" style="vector-effect: non-scaling-stroke;"/>
  <path class="eye-limit"  d="m1225,824c0.4333,-1.08317 0.2877,0.75988 0.5791,0.6671c0,0 0,0 0,0c0.02,0.47528 -0.2392,1.0507 -0.5551,1.52876c-0.9604,1.58127 -2.9353,3.00557 -5.7443,4.42874c-4.63,2.40503 -11.0711,4.61513 -18.723,6.08659c-7.3953,1.42211 -14.3233,1.85047 -19.2336,1.66012c-4.965,-0.19247 -8.1253,-1.01403 -8.3231,-2.37131c-0.429,-2.94347 11.3411,-6.37917 25.6761,-9.11118c6.8051,-1.29693 14.163,-2.48951 18.5469,-2.96236c2.0773,-0.27745 5.7015,-0.33374 6.1658,-0.32593c0.3583,-0.0479 0.8258,0.20478 0.9709,0.24616c0,0 0,0 0,0c-0.3095,-0.14975 0.5476,0.38508 0.6403,0.15331z"  id="svg_1737" stroke-width="1px" style="vector-effect: non-scaling-stroke;"/>
  <path class="eye-limit"  d="m837.00001,836.99999c-0.0253,-0.0244 -0.0467,-0.0521 -0.0649,-0.0836c-0.0176,-0.0306 -0.0318,-0.0646 -0.0425,-0.10201c-0.0215,-0.0747 -0.0293,-0.16249 -0.0235,-0.26342c0,0 0,0 0,0l0,0c0.0119,-0.2017 0.0786,-0.4536 0.19987,-0.75412l0,0c0.24087,-0.59689 0.69437,-1.37336 1.36798,-2.30861l0,0c1.32448,-1.83891 3.46501,-4.24382 6.48183,-6.97225l0,0c5.80117,-5.24976 14.82678,-11.67494 26.88389,-16.48263l0,0.00001c0,-0.00001 0,-0.00001 0,-0.00001c8.10616,-3.23129 17.37384,-5.57225 27.43206,-6.32207c5.27088,-0.39294 10.41807,-0.32256 15.37406,0.14919c0.00001,0 0.00001,0 0.00001,0c16.59755,1.63018 30.13769,7.52199 38.85704,12.62119c8.84382,5.17199 13.10648,9.60503 12.53413,10.51836c-0.69241,1.10492 -6.13691,-1.39674 -15.26374,-4.78986c-8.97744,-3.33758 -22.03654,-7.67275 -36.91895,-8.60022c0,0 0,0 0,0c-4.46594,-0.29319 -9.09066,-0.28518 -13.83808,0.0701c-9.05239,0.67736 -17.46959,2.53398 -25.00279,5.02603c0,0 0,0 0,0l0,0c-11.26037,3.72561 -20.24147,8.64153 -26.65267,12.41667l0,0c-3.31476,1.9536 -5.92144,3.59105 -7.81267,4.66119l0,0c-0.95881,0.54258 -1.74269,0.94101 -2.32267,1.15422l0,0c-0.29448,0.10827 -0.54204,0.17028 -0.73903,0.18261l0,0c0,0 0,0 0,0c-0.0994,0.006 -0.18661,-0.00001 -0.26104,-0.0195c-0.0374,-0.01 -0.0716,-0.0229 -0.10268,-0.0394c-0.032,-0.017 -0.0604,-0.0374 -0.0857,-0.0618l0.00005,-0.00007z"  id="svg_1736" stroke-width="1px" style="vector-effect: non-scaling-stroke;"/>
  <path class="eye-limit"  d="m838.18842,836.93815c0.14261,-1.2867 6.6108,-1.75754 17.0806,-1.49063c0,0 0.00001,0 0.00001,0c9.84277,0.10166 23.21234,0.60108 38.21949,0.82545c3.01282,0.043 6.12365,0.0825 9.24473,0.10179c12.53804,0.0773 22.63617,-0.2057 32.59342,-1.10154c0,0 0,0 0,0c7.00421,-0.63974 12.02824,-1.36938 16.90631,-2.51648c7.94687,-1.96419 11.94932,-4.57444 12.76702,-3.75674c0.82706,0.82705 -2.06705,5.71207 -10.75896,9.55663c-4.87444,2.21171 -10.62727,3.91693 -17.7466,5.21165c-0.00001,0 -0.00001,0 -0.00001,0c-10.09057,1.84821 -21.20953,2.69305 -33.82339,2.61403c-3.21367,-0.0201 -6.37232,-0.0987 -9.44377,-0.2164c-15.32688,-0.57647 -28.89741,-2.25436 -38.64949,-4.02754c-0.00001,0 -0.00001,0 -0.00001,0c-10.32109,-2.03767 -16.53199,-3.91327 -16.38935,-5.20022z"  id="svg_1735" stroke-width="1px" style="vector-effect: non-scaling-stroke;"/>
  <path class="eye"  d="m888,815.5c2.94969,-9.4684 13.12434,-14.72897 22.71128,-11.74236c9.58693,2.98662 14.97369,13.09503 12.024,22.56343c-2.94968,9.4684 -13.12434,14.72898 -22.71127,11.74236c-9.58694,-2.98662 -14.9737,-13.09503 -12.02401,-22.56343z"  id="svg_1759" stroke-width="1px" style="vector-effect: non-scaling-stroke;"/>
  <path class="eye"  d="m1143.5,812c0.3248,-9.79962 10.7245,-17.41694 23.2135,-17.00294c12.489,0.41401 22.3614,8.70332 22.0365,18.50294c-0.3248,9.79962 -10.7245,17.41694 -23.2135,17.00294c-12.489,-0.414 -22.3613,-8.70332 -22.0365,-18.50294z"  id="svg_1758" stroke-width="1px" style="vector-effect: non-scaling-stroke;"/>
  
  <!-- Lips -->
  <path class="lip"  d="m1131.3708,1087.7763c0.6841,0.9149 -6.0098,7.2337 -17.8905,17.1662c-11.4183,8.4239 -28.8066,19.0826 -50.7237,26.2492c-10.3214,3.3652 -21.7019,5.9126 -33.7655,6.8654c-1.7264,0.1361 -3.465,0.2382 -5.2143,0.3047c-11.1132,0.4227 -21.8298,-0.6205 -31.8564,-2.9103c-14.91616,-3.4198 -27.74596,-9.4769 -38.0276,-16.0805c-25.78344,-16.5796 -35.06064,-34.0593 -34.65399,-34.4231c1.22654,-1.0974 13.98034,13.7363 38.78878,27.5323c10.02611,5.5824 22.18275,10.714 35.94573,13.531c9.26188,1.9047 19.14308,2.7451 29.42418,2.3559c1.6187,-0.061 3.2285,-0.1524 4.8281,-0.2718c11.1845,-0.8336 21.8872,-3.0548 31.726,-5.9445c20.7681,-6.0782 38.1274,-15.2701 50.0415,-22.1802c12.7461,-8.4813 20.6939,-13.1088 21.3777,-12.1943z"  id="svg_1775" stroke-width="1px" style="vector-effect: non-scaling-stroke;"/>
  <path class="lip"   d="m1131.3669,1087.7728c-0.029,0.032 -0.061,0.061 -0.096,0.087c-0.038,0.023 -0.08,0.041 -0.1265,0.055c-0.093,0.028 -0.2048,0.04 -0.3342,0.035c0,0 0,0 0,0l0,0c-0.2568,-0.01 -0.5852,-0.081 -0.9805,-0.2132l0,0c-0.7792,-0.2603 -1.8302,-0.755 -3.119,-1.4457l0,0c-2.4911,-1.3349 -5.9495,-3.4449 -10.1407,-6.0051l0,0c-7.4184,-4.5264 -18.282,-11.2672 -30.1133,-16.6989c-2.8443,-1.3037 -5.7932,-2.5637 -8.8073,-3.6896c-2.6592,-0.9933 -5.2764,-1.8476 -7.8759,-2.5487c-5.6134,-1.4919 -10.7409,-2.2792 -15.5871,-2.0519c-5.3504,0.2394 -9.9629,1.6682 -13.5952,3.775c0,0 0,0 0,0c-8.9764,5.0327 -12.5872,12.3419 -13.8717,11.7335c-0.2296,-0.1088 -1.0351,-8.864 9.7347,-17.6637c0,0.0001 0,0 0,0c4.2782,-3.4109 10.0809,-6.0728 16.9701,-6.8669c6.078,-0.695 12.4081,-0.123 18.8229,1.4895c2.979,0.7387 5.9423,1.6652 8.8941,2.763c3.3507,1.246 6.5459,2.6603 9.563,4.1515c12.7521,6.2938 23.0706,14.1124 29.902,20.1529l0,0c3.805,3.3602 6.6673,6.3055 8.5056,8.5501l0,0c0.9467,1.1559 1.6172,2.1202 2.0014,2.8641l0,0c0.1942,0.376 0.3145,0.6935 0.3588,0.9496l0,0c0,0 0,0 0,0c0.022,0.1285 0.025,0.2412 0.01,0.3377c-0.01,0.048 -0.021,0.093 -0.039,0.1328c-0.021,0.039 -0.046,0.074 -0.074,0.1064l-0.0022,0.0006z"  id="svg_1774" stroke-width="1px" style="vector-effect: non-scaling-stroke;"/>
  <path class="lip"  d="m1040.5912,1059.0717c-0.019,0.029 -0.041,0.055 -0.067,0.079c-0.025,0.023 -0.054,0.044 -0.086,0.062c-0.064,0.037 -0.1423,0.065 -0.2336,0.084c0,0 0,0 0,0l0,0c-0.1807,0.038 -0.416,0.044 -0.7014,0.018c0,0 0,0 0,0l0,0c-0.5617,-0.05 -1.3405,-0.2178 -2.3012,-0.4732l0,0c-1.8941,-0.5034 -4.5295,-1.3416 -7.8567,-2.2815l0,0c-6.4573,-1.8211 -15.3887,-3.9788 -26.0972,-4.3932l0,0l0,0c-7.82244,-0.3077 -16.33647,0.4023 -25.18685,2.578c-3.69049,0.9072 -7.23786,2.0205 -10.62137,3.2971c0,0 -0.00001,0 -0.00001,0c-13.52105,5.0553 -24.62183,12.8042 -32.15322,18.3604c-7.69077,5.6738 -12.24153,9.4381 -13.21872,8.5459c-0.82142,-0.75 2.03784,-6.083 8.92427,-13.3748c6.77671,-7.1757 17.84432,-16.4999 32.83913,-22.6866c0.00001,0 0.00001,0 0.00001,0c3.74645,-1.5337 7.70522,-2.8375 11.84367,-3.8539c9.92805,-2.4383 19.55033,-2.8989 28.25319,-1.9722l0,0l0,0c11.8429,1.27 21.2855,4.906 27.5496,8.302l0,0c3.2485,1.76 5.6364,3.4492 7.1737,4.8177l0,0c0.7831,0.6973 1.3361,1.3027 1.6626,1.7949l0,0c0,0 0,0 0,0c0.1645,0.2481 0.2704,0.4646 0.3173,0.6483l0,0c0,0 0,0 0,0c0.023,0.092 0.032,0.1751 0.025,0.2496c0,0.037 -0.01,0.072 -0.021,0.105c-0.011,0.034 -0.026,0.065 -0.044,0.094l-0.0002,-0.0005z"  id="svg_1773" stroke-width="1px" style="vector-effect: non-scaling-stroke;"/>
  <path class="lip"  d="m1126.7102,1086.2915c0.01,0.035 0.01,0.071 -0.0008,0.1077c-0.01,0.037 -0.021,0.074 -0.042,0.1136c0,0 0,0 0,0c-0.042,0.078 -0.1106,0.1613 -0.2062,0.2492c0,0 0,0 0,0l0,0c-0.1914,0.1758 -0.4891,0.3701 -0.89,0.5814l0,0c-0.802,0.4227 -2.009,0.9096 -3.5994,1.4483l0,0c-3.1855,1.079 -7.8243,2.3396 -13.7663,3.6738l0,0c-11.8595,2.663 -28.3959,5.5169 -48.0904,7.5277c-10.0206,1.0239 -20.7694,1.8208 -31.9997,2.2229c-11.4102,0.4086 -22.244,0.3714 -32.48755,-0.05c0,0 0,0 -0.00001,0c-20.19453,-0.8233 -36.23201,-3.0588 -48.44247,-5.7853c-11.79485,-2.6337 -18.41185,-5.367 -18.18517,-6.3811c0.25127,-1.1241 7.28666,-0.3828 19.06948,0.5791c12.86248,1.0501 27.31569,1.979 47.78646,2.1264c0,0 0.00001,0 0.00001,0c10.09755,0.069 20.64315,-0.079 31.90105,-0.4831c11.0453,-0.3965 21.6304,-0.9984 31.5546,-1.6712c20.0771,-1.3628 35.3954,-2.8637 47.9943,-3.9262l0,0c5.9608,-0.5028 10.8208,-0.8606 14.105,-0.9529l0,0c1.6625,-0.047 2.9626,-0.027 3.8543,0.07l0,0c0.4474,0.049 0.7946,0.1183 1.0366,0.2087l0,0c0,0 0,0 0,0c0.1212,0.045 0.2162,0.096 0.2843,0.1524c0,0 0,0 0,0c0.034,0.028 0.062,0.058 0.082,0.089c0.021,0.032 0.035,0.065 0.042,0.099l-0.0001,0.0006z"  id="svg_1765" stroke-width="1px" style="vector-effect: non-scaling-stroke;"/>
  <path class="under-lip"  d="m977.00001,1156c0.0197,-0.03 0.0425,-0.057 0.0684,-0.082c0.025,-0.024 0.0529,-0.047 0.0835,-0.067c0.0612,-0.041 0.13384,-0.074 0.21739,-0.1c0,0 0,0 0,0l0,0c0.16587,-0.051 0.37665,-0.074 0.62893,-0.069c0,0 0,0 0,0l0,0c0.49958,0.01 1.17489,0.1249 2.00224,0.3265l0,0c1.60114,0.3901 3.93059,1.1425 6.70039,2.0389l0,0c5.53359,1.7891 12.95926,4.1858 21.99118,5.9067c5.4069,1.0254 11.2796,1.7745 17.4552,1.9698c4.2714,0.135 8.3661,-0.01 12.2893,-0.3843c0,0 0,0 0,0c10.4605,-0.9861 19.2665,-3.7133 25.6431,-5.8767c6.3519,-2.155 10.2491,-3.6904 10.9203,-2.6626c0.5906,0.9043 -2.1411,4.289 -8.2169,8.203c-6.054,3.8999 -15.388,8.2022 -27.169,9.9428c0,0 0,0 0,0c-4.3901,0.6397 -9.0017,0.9167 -13.7779,0.7701c-6.9155,-0.2123 -13.4072,-1.2883 -19.2472,-2.8625c-9.69239,-2.6059 -17.32816,-6.4304 -22.41894,-9.7749l0,0c-2.6129,-1.7156 -4.53412,-3.2914 -5.75122,-4.5658l0,0c-0.6151,-0.6441 -1.0436,-1.2034 -1.28318,-1.6628l0,0c0,0 0,0 0,0c-0.12036,-0.2309 -0.19271,-0.4344 -0.21594,-0.6099l0,0c0,0 0,0 0,0c-0.0114,-0.088 -0.0108,-0.168 0.002,-0.241c0.007,-0.037 0.0161,-0.071 0.0288,-0.1037c0.0132,-0.034 0.0295,-0.065 0.0492,-0.095l0.00035,-0.0006z"  id="svg_1702" stroke-width="1px" style="vector-effect: non-scaling-stroke;"/>
  
  <!-- Ear -->
  <path class="ear"  d="m787.99999,1013c-0.0637,0.056 -0.13216,0.1039 -0.20783,0.145c0,0 0,0 0,0c-0.0732,0.04 -0.15192,0.072 -0.23612,0.098c0,0 0,0 0,0c-0.16783,0.051 -0.35673,0.074 -0.56588,0.07l0,0c-0.41601,-0.01 -0.90945,-0.1261 -1.47016,-0.3456l0,0c-1.10167,-0.4313 -2.45492,-1.2585 -3.96431,-2.4434l0,0c-2.84889,-2.2344 -6.28959,-5.776 -9.46275,-10.3511c-0.67867,-0.96862 -1.3512,-1.99398 -2.0004,-3.07301c-2.29572,-3.81568 -3.90055,-7.64583 -4.7616,-11.36637c0,0 0,0 0,0c-0.63571,-2.68241 -0.75855,-5.20468 -0.42546,-7.39047c0.61517,-4.49634 3.17583,-5.8025 4.09452,-5.34316c0.81019,0.4051 1.45379,2.72743 2.28173,4.97988c0.5955,1.56713 1.20844,2.79332 2.25834,4.90001c0,0 0,0.00001 0,0.00001c1.48201,2.93459 2.97615,5.46716 5.13543,9.05623c0.58546,0.97313 1.15013,1.91068 1.7169,2.86818c2.62612,4.39098 4.9274,8.3314 6.40891,11.5241l0,0c0.77402,1.6675 1.31171,3.1076 1.54114,4.2362l0,0c0.11691,0.575 0.15326,1.0724 0.10151,1.4792l0,0c-0.0258,0.2055 -0.0746,0.3886 -0.14699,0.5473c0,0 0,0 0,0c-0.0364,0.08 -0.0788,0.1535 -0.12737,0.2209c0,0 0,0 0,0c-0.0503,0.07 -0.10596,0.1318 -0.16961,0.188l0,0.0001z"  id="svg_1745" stroke-width="1px" style="vector-effect: non-scaling-stroke;"/>
  <path class="ear"  d="m783.14103,968.1778c-0.0356,0.028 -0.075,0.051 -0.11808,0.069c-0.0422,0.0177 -0.0879,0.0306 -0.13718,0.0388c-0.0983,0.0163 -0.21032,0.0137 -0.33594,-0.007c0,0 0,0 0,0l0,0c-0.25016,-0.0421 -0.55291,-0.15776 -0.90534,-0.34441l0,0c-0.69677,-0.36902 -1.58176,-1.01373 -2.62768,-1.91889l0,0c-2.02798,-1.75504 -4.6481,-4.47936 -7.6049,-8.05739l0,0c-5.26422,-6.3614 -11.99356,-15.85069 -17.37155,-27.30896c-0.73343,-1.55869 -1.4455,-3.16918 -2.11869,-4.82691c-1.50477,-3.70544 -2.72236,-7.41891 -3.59677,-11.16891c-1.26208,-5.2337 -1.67392,-10.45111 -0.86886,-15.50321c0.40704,-2.49252 1.18507,-4.84733 2.29177,-6.9733c0,0 0,0 0,0c1.2339,-2.34659 2.84863,-4.25219 4.58779,-5.70996c2.31479,-1.91538 4.73639,-3.01833 6.78197,-3.6344c5.55478,-1.67091 8.76101,-0.56045 8.88243,0.16807c0.19864,1.19181 -2.73443,2.02772 -6.6405,4.71695c-1.38576,0.95681 -2.93959,2.20063 -4.12533,3.72751c-0.90107,1.1402 -1.67821,2.50762 -2.20249,4.03647c0,0 0,0 0,0c-0.49385,1.40253 -0.77044,2.98273 -0.88011,4.72905c-0.255,3.65081 0.4514,7.53323 1.64807,12.05508c0.87636,3.19678 2.02061,6.42338 3.39058,9.788c0.61156,1.50198 1.25148,2.99082 1.90103,4.45551c4.6416,10.43709 10.46841,20.68782 14.15716,27.49897l0,0c2.14891,3.96364 3.87719,7.25095 4.93883,9.65427l0,0c0.54832,1.24122 0.92308,2.25684 1.09385,3.0139l0,0c0.0866,0.38386 0.12087,0.70328 0.0997,0.95374l0,0c0,0 0,0 0,0c-0.0106,0.12616 -0.0353,0.23514 -0.0746,0.32624c-0.0197,0.0457 -0.0431,0.087 -0.0702,0.12373c-0.0277,0.0376 -0.0593,0.0704 -0.0949,0.0984l-0.00006,-0.00035z"  id="svg_1744" stroke-width="1px" style="vector-effect: non-scaling-stroke;"/>
  <path class="ear"  d="m1293,955.99998c-1.9235,-1.1715 -0.028,-7.95105 4.2413,-16.15584c0,0 0,0 0,-0.00001c0.8478,-1.84583 1.771,-3.76758 2.7413,-5.74197c1.1667,-2.37422 2.4013,-4.82351 3.462,-6.88312c0,0 0,0 0,0c3.6455,-7.12962 6.6486,-12.53685 8.5554,-12.21905c2.1878,0.36463 2.9255,6.9781 0.094,15.76423c0,0 0,0 0,0c-0.815,2.53616 -1.882,5.18038 -3.2023,7.86253c-1.0626,2.15838 -2.2045,4.16928 -3.3669,6.00055c0,0 0,0 0,0c-5.4324,7.7215 -10.5989,12.54534 -12.5244,11.37268l-0.0004,0z"  id="svg_1743" stroke-width="1px" style="vector-effect: non-scaling-stroke;"/>
  <path class="ear"  d="m1287,965c-1.3531,-0.68179 2.9494,-12.24026 10.8269,-29.91203c5.3594,-12.50956 6.7986,-15.74899 12.158,-28.25854c3.4508,-8.09097 7.1581,-16.89192 10.7525,-25.91971c0.6301,-1.58256 1.2499,-3.15484 1.8599,-4.71908c3.9435,-10.12464 7.2115,-19.06566 9.8585,-28.10885c1.1882,-4.06435 2.1634,-7.82199 2.8668,-11.52634c0.6031,-3.25133 1.0089,-6.1119 0.9744,-8.86198c-0.1003,-2.21957 -0.2036,-3.96971 -0.8993,-5.21839c-0.2478,-0.49656 -0.5262,-0.92125 -0.8424,-1.20355c-0.3149,-0.32096 -0.7936,-0.57341 -1.313,-0.75592c-1.6805,-0.65847 -4.159,-0.1906 -6.2046,0.22349c-7.2549,1.64754 -11.5441,4.04625 -12.0377,3.2609c-0.2472,-0.39333 2.5064,-4.57591 10.4032,-8.07355c2.1802,-1.02245 5.3473,-2.07962 9.1416,-1.5909c1.3066,0.20214 2.6598,0.68684 3.9432,1.52797c1.1833,0.80825 2.1799,1.8317 2.9322,3.00563c1.6418,2.65669 2.4001,5.57665 2.595,8.36956c0.3338,3.51081 0.1594,7.02153 -0.2886,10.60821c-0.5024,4.13977 -1.3216,8.29698 -2.3744,12.61352c-2.3219,9.53371 -5.5126,19.0837 -9.4419,29.32946c-0.613,1.60004 -1.2405,3.20616 -1.8826,4.81886c-3.6777,9.23638 -7.5731,18.03139 -11.369,26.10808c-4.9064,10.44027 -9.7369,19.8542 -14.0365,27.73382c-9.5383,16.8919 -16.2689,27.23121 -17.6222,26.54934z"  id="svg_1742" stroke-width="1px" style="vector-effect: non-scaling-stroke;"/>
  
  </symbol>
  </defs>
  <use id="svg_1781" transform="matrix(2.26913 0 0 2.11782 -312.681 170.522)" x="1.06253" xlink:href="#svg_1780" y="-119.50701"/>
</svg>